<?xml version="1.0" encoding="UTF-8"?>
<svg xmlns="http://www.w3.org/2000/svg" xmlns:xlink="http://www.w3.org/1999/xlink" width="432pt" height="360pt" viewBox="0 0 432 360" version="1.1">
<defs>
<g>
<symbol overflow="visible" id="glyph0-0">
<path style="stroke:none;" d=""/>
</symbol>
<symbol overflow="visible" id="glyph0-1">
<path style="stroke:none;" d="M 1.765625 -8.046875 L 1.828125 -6.8125 L 0.65625 -7.234375 L 0.4375 -6.578125 L 1.640625 -6.25 L 0.875 -5.265625 L 1.421875 -4.875 L 2.125 -5.90625 L 2.8125 -4.875 L 3.375 -5.265625 L 2.59375 -6.25 L 3.796875 -6.578125 L 3.578125 -7.234375 L 2.40625 -6.8125 L 2.46875 -8.046875 Z M 1.765625 -8.046875 "/>
</symbol>
<symbol overflow="visible" id="glyph1-0">
<path style="stroke:none;" d=""/>
</symbol>
<symbol overflow="visible" id="glyph1-1">
<path style="stroke:none;" d="M 3.515625 -9.25 C 2.671875 -9.25 1.90625 -8.875 1.4375 -8.234375 C 0.84375 -7.421875 0.546875 -6.1875 0.546875 -4.484375 C 0.546875 -1.359375 1.578125 0.296875 3.515625 0.296875 C 5.4375 0.296875 6.484375 -1.359375 6.484375 -4.40625 C 6.484375 -6.1875 6.203125 -7.390625 5.609375 -8.234375 C 5.125 -8.875 4.375 -9.25 3.515625 -9.25 Z M 3.515625 -8.25 C 4.734375 -8.25 5.34375 -7.015625 5.34375 -4.5 C 5.34375 -1.875 4.75 -0.640625 3.5 -0.640625 C 2.296875 -0.640625 1.703125 -1.921875 1.703125 -4.46875 C 1.703125 -7.015625 2.296875 -8.25 3.515625 -8.25 Z M 3.515625 -8.25 "/>
</symbol>
<symbol overflow="visible" id="glyph1-2">
<path style="stroke:none;" d="M 3.3125 -6.59375 L 3.3125 0 L 4.4375 0 L 4.4375 -9.25 L 3.703125 -9.25 C 3.296875 -7.828125 3.046875 -7.640625 1.3125 -7.40625 L 1.3125 -6.59375 Z M 3.3125 -6.59375 "/>
</symbol>
<symbol overflow="visible" id="glyph1-3">
<path style="stroke:none;" d="M 6.46875 -1.109375 L 1.703125 -1.109375 C 1.8125 -1.875 2.234375 -2.375 3.34375 -3.046875 L 4.625 -3.765625 C 5.890625 -4.46875 6.546875 -5.40625 6.546875 -6.546875 C 6.546875 -7.3125 6.234375 -8.03125 5.6875 -8.53125 C 5.15625 -9.015625 4.484375 -9.25 3.640625 -9.25 C 2.484375 -9.25 1.625 -8.84375 1.125 -8.046875 C 0.8125 -7.5625 0.671875 -6.984375 0.640625 -6.046875 L 1.765625 -6.046875 C 1.796875 -6.6875 1.875 -7.046875 2.03125 -7.359375 C 2.328125 -7.921875 2.921875 -8.265625 3.59375 -8.265625 C 4.625 -8.265625 5.390625 -7.53125 5.390625 -6.53125 C 5.390625 -5.78125 4.96875 -5.140625 4.15625 -4.6875 L 2.984375 -4 C 1.09375 -2.90625 0.53125 -2.03125 0.4375 -0.015625 L 6.46875 -0.015625 Z M 6.46875 -1.109375 "/>
</symbol>
<symbol overflow="visible" id="glyph1-4">
<path style="stroke:none;" d="M 7.625 -6.59375 C 7.625 -7.234375 7.59375 -7.40625 7.390625 -7.84375 C 6.875 -8.921875 5.78125 -9.484375 4.203125 -9.484375 C 2.15625 -9.484375 0.890625 -8.4375 0.890625 -6.75 C 0.890625 -5.609375 1.5 -4.890625 2.71875 -4.5625 L 5.046875 -3.953125 C 6.234375 -3.640625 6.75 -3.171875 6.75 -2.4375 C 6.75 -1.9375 6.484375 -1.4375 6.09375 -1.15625 C 5.71875 -0.890625 5.125 -0.75 4.375 -0.75 C 3.359375 -0.75 2.671875 -1 2.234375 -1.53125 C 1.875 -1.9375 1.734375 -2.390625 1.734375 -2.96875 L 0.609375 -2.96875 C 0.625 -2.109375 0.796875 -1.546875 1.171875 -1.03125 C 1.796875 -0.15625 2.875 0.296875 4.296875 0.296875 C 5.40625 0.296875 6.328125 0.03125 6.921875 -0.421875 C 7.546875 -0.921875 7.953125 -1.75 7.953125 -2.5625 C 7.953125 -3.71875 7.234375 -4.5625 5.96875 -4.90625 L 3.625 -5.53125 C 2.5 -5.828125 2.078125 -6.1875 2.078125 -6.90625 C 2.078125 -7.859375 2.921875 -8.484375 4.171875 -8.484375 C 5.65625 -8.484375 6.484375 -7.8125 6.5 -6.59375 Z M 7.625 -6.59375 "/>
</symbol>
<symbol overflow="visible" id="glyph1-5">
<path style="stroke:none;" d="M 9.515625 0 L 11.890625 -9.328125 L 10.5625 -9.328125 L 8.84375 -1.75 L 6.71875 -9.328125 L 5.4375 -9.328125 L 3.359375 -1.75 L 1.609375 -9.328125 L 0.28125 -9.328125 L 2.671875 0 L 3.984375 0 L 6.0625 -7.671875 L 8.21875 0 Z M 9.515625 0 "/>
</symbol>
<symbol overflow="visible" id="glyph1-6">
<path style="stroke:none;" d="M 3.296875 -6.703125 L 2.1875 -6.703125 L 2.1875 -7.75 C 2.1875 -8.203125 2.4375 -8.4375 2.9375 -8.4375 C 3.015625 -8.4375 3.0625 -8.4375 3.296875 -8.421875 L 3.296875 -9.296875 C 3.0625 -9.359375 2.921875 -9.375 2.703125 -9.375 C 1.71875 -9.375 1.125 -8.796875 1.125 -7.84375 L 1.125 -6.703125 L 0.234375 -6.703125 L 0.234375 -5.828125 L 1.125 -5.828125 L 1.125 0 L 2.1875 0 L 2.1875 -5.828125 L 3.296875 -5.828125 Z M 3.296875 -6.703125 "/>
</symbol>
<symbol overflow="visible" id="glyph1-7">
<path style="stroke:none;" d="M 6.5625 -3 C 6.5625 -4.015625 6.484375 -4.625 6.296875 -5.125 C 5.859375 -6.234375 4.84375 -6.890625 3.578125 -6.890625 C 1.71875 -6.890625 0.515625 -5.484375 0.515625 -3.265625 C 0.515625 -1.046875 1.65625 0.296875 3.5625 0.296875 C 5.09375 0.296875 6.15625 -0.578125 6.421875 -2.03125 L 5.34375 -2.03125 C 5.0625 -1.15625 4.453125 -0.6875 3.59375 -0.6875 C 2.921875 -0.6875 2.34375 -1 1.984375 -1.5625 C 1.734375 -1.9375 1.640625 -2.328125 1.625 -3 Z M 1.65625 -3.859375 C 1.734375 -5.109375 2.5 -5.90625 3.578125 -5.90625 C 4.65625 -5.90625 5.40625 -5.0625 5.40625 -3.859375 Z M 1.65625 -3.859375 "/>
</symbol>
<symbol overflow="visible" id="glyph1-8">
<path style="stroke:none;" d="M 0.890625 -6.703125 L 0.890625 0 L 1.96875 0 L 1.96875 -4.203125 C 1.96875 -5.1875 2.671875 -5.96875 3.546875 -5.96875 C 4.34375 -5.96875 4.78125 -5.484375 4.78125 -4.625 L 4.78125 0 L 5.859375 0 L 5.859375 -4.203125 C 5.859375 -5.1875 6.5625 -5.96875 7.4375 -5.96875 C 8.21875 -5.96875 8.671875 -5.46875 8.671875 -4.625 L 8.671875 0 L 9.75 0 L 9.75 -5.03125 C 9.75 -6.234375 9.0625 -6.890625 7.8125 -6.890625 C 6.90625 -6.890625 6.375 -6.625 5.75 -5.875 C 5.34375 -6.59375 4.8125 -6.890625 3.9375 -6.890625 C 3.046875 -6.890625 2.4375 -6.5625 1.875 -5.765625 L 1.875 -6.703125 Z M 0.890625 -6.703125 "/>
</symbol>
<symbol overflow="visible" id="glyph1-9">
<path style="stroke:none;" d="M 6.84375 -0.625 C 6.734375 -0.59375 6.6875 -0.59375 6.609375 -0.59375 C 6.25 -0.59375 6.046875 -0.796875 6.046875 -1.125 L 6.046875 -5.0625 C 6.046875 -6.25 5.171875 -6.890625 3.515625 -6.890625 C 2.53125 -6.890625 1.75 -6.609375 1.296875 -6.109375 C 0.984375 -5.765625 0.859375 -5.390625 0.828125 -4.71875 L 1.90625 -4.71875 C 2 -5.546875 2.484375 -5.90625 3.484375 -5.90625 C 4.453125 -5.90625 4.984375 -5.546875 4.984375 -4.90625 L 4.984375 -4.625 C 4.96875 -4.171875 4.734375 -4 3.859375 -3.890625 C 2.359375 -3.703125 2.125 -3.640625 1.71875 -3.484375 C 0.9375 -3.140625 0.53125 -2.5625 0.53125 -1.6875 C 0.53125 -0.46875 1.375 0.296875 2.734375 0.296875 C 3.578125 0.296875 4.265625 0 5.015625 -0.6875 C 5.09375 0 5.421875 0.296875 6.109375 0.296875 C 6.34375 0.296875 6.484375 0.265625 6.84375 0.171875 Z M 4.984375 -2.109375 C 4.984375 -1.75 4.875 -1.53125 4.5625 -1.234375 C 4.125 -0.84375 3.59375 -0.640625 2.96875 -0.640625 C 2.140625 -0.640625 1.65625 -1.03125 1.65625 -1.71875 C 1.65625 -2.421875 2.109375 -2.78125 3.265625 -2.9375 C 4.40625 -3.09375 4.625 -3.140625 4.984375 -3.3125 Z M 4.984375 -2.109375 "/>
</symbol>
<symbol overflow="visible" id="glyph1-10">
<path style="stroke:none;" d="M 1.9375 -9.328125 L 0.875 -9.328125 L 0.875 0 L 1.9375 0 Z M 1.9375 -9.328125 "/>
</symbol>
<symbol overflow="visible" id="glyph2-0">
<path style="stroke:none;" d=""/>
</symbol>
<symbol overflow="visible" id="glyph2-1">
<path style="stroke:none;" d="M 8.8125 -5.3125 L 8.8125 0 L 10.296875 0 L 10.296875 -11.65625 L 8.8125 -11.65625 L 8.8125 -6.625 L 2.8125 -6.625 L 2.8125 -11.65625 L 1.328125 -11.65625 L 1.328125 0 L 2.8125 0 L 2.8125 -5.3125 Z M 8.8125 -5.3125 "/>
</symbol>
<symbol overflow="visible" id="glyph2-2">
<path style="stroke:none;" d="M 8.5625 -0.78125 C 8.421875 -0.75 8.359375 -0.75 8.265625 -0.75 C 7.8125 -0.75 7.546875 -0.984375 7.546875 -1.40625 L 7.546875 -6.34375 C 7.546875 -7.828125 6.46875 -8.625 4.40625 -8.625 C 3.171875 -8.625 2.1875 -8.265625 1.609375 -7.640625 C 1.234375 -7.21875 1.078125 -6.734375 1.046875 -5.90625 L 2.390625 -5.90625 C 2.5 -6.921875 3.109375 -7.390625 4.359375 -7.390625 C 5.5625 -7.390625 6.21875 -6.9375 6.21875 -6.140625 L 6.21875 -5.796875 C 6.203125 -5.21875 5.921875 -5.015625 4.828125 -4.859375 C 2.9375 -4.625 2.65625 -4.5625 2.140625 -4.359375 C 1.171875 -3.9375 0.671875 -3.203125 0.671875 -2.109375 C 0.671875 -0.59375 1.734375 0.375 3.421875 0.375 C 4.484375 0.375 5.328125 0 6.265625 -0.859375 C 6.375 0 6.78125 0.375 7.640625 0.375 C 7.9375 0.375 8.109375 0.34375 8.5625 0.21875 Z M 6.21875 -2.640625 C 6.21875 -2.1875 6.09375 -1.921875 5.703125 -1.546875 C 5.15625 -1.0625 4.5 -0.796875 3.71875 -0.796875 C 2.671875 -0.796875 2.0625 -1.296875 2.0625 -2.140625 C 2.0625 -3.03125 2.640625 -3.46875 4.078125 -3.6875 C 5.5 -3.875 5.78125 -3.9375 6.21875 -4.140625 Z M 6.21875 -2.640625 "/>
</symbol>
<symbol overflow="visible" id="glyph2-3">
<path style="stroke:none;" d="M 0.859375 3.484375 L 2.203125 3.484375 L 2.203125 -0.875 C 2.90625 -0.015625 3.703125 0.375 4.78125 0.375 C 6.953125 0.375 8.375 -1.375 8.375 -4.046875 C 8.375 -6.859375 6.984375 -8.625 4.765625 -8.625 C 3.625 -8.625 2.71875 -8.109375 2.09375 -7.125 L 2.09375 -8.390625 L 0.859375 -8.390625 Z M 4.546875 -7.375 C 6.015625 -7.375 6.96875 -6.078125 6.96875 -4.078125 C 6.96875 -2.171875 6 -0.875 4.546875 -0.875 C 3.125 -0.875 2.203125 -2.15625 2.203125 -4.125 C 2.203125 -6.09375 3.125 -7.375 4.546875 -7.375 Z M 4.546875 -7.375 "/>
</symbol>
<symbol overflow="visible" id="glyph2-4">
<path style="stroke:none;" d="M 2.4375 -11.65625 L 1.09375 -11.65625 L 1.09375 0 L 2.4375 0 Z M 2.4375 -11.65625 "/>
</symbol>
<symbol overflow="visible" id="glyph2-5">
<path style="stroke:none;" d="M 4.359375 -8.625 C 1.984375 -8.625 0.578125 -6.9375 0.578125 -4.125 C 0.578125 -1.296875 1.984375 0.375 4.375 0.375 C 6.734375 0.375 8.15625 -1.3125 8.15625 -4.0625 C 8.15625 -6.96875 6.78125 -8.625 4.359375 -8.625 Z M 4.375 -7.390625 C 5.875 -7.390625 6.765625 -6.15625 6.765625 -4.078125 C 6.765625 -2.09375 5.84375 -0.859375 4.375 -0.859375 C 2.875 -0.859375 1.96875 -2.09375 1.96875 -4.125 C 1.96875 -6.15625 2.875 -7.390625 4.375 -7.390625 Z M 4.375 -7.390625 "/>
</symbol>
<symbol overflow="visible" id="glyph2-6">
<path style="stroke:none;" d="M 6.46875 -8.390625 L 6.46875 -7.171875 C 5.796875 -8.171875 5.0625 -8.625 4 -8.625 C 1.96875 -8.625 0.5625 -6.734375 0.5625 -4.046875 C 0.5625 -2.640625 0.890625 -1.609375 1.609375 -0.765625 C 2.234375 -0.03125 3.046875 0.375 3.90625 0.375 C 4.90625 0.375 5.625 -0.078125 6.34375 -1.140625 L 6.34375 -0.703125 C 6.34375 1.53125 5.71875 2.375 4.046875 2.375 C 2.90625 2.375 2.3125 1.921875 2.1875 0.953125 L 0.828125 0.953125 C 0.953125 2.515625 2.1875 3.484375 4.015625 3.484375 C 5.25 3.484375 6.265625 3.09375 6.8125 2.421875 C 7.453125 1.625 7.703125 0.59375 7.703125 -1.375 L 7.703125 -8.390625 Z M 4.125 -7.390625 C 5.53125 -7.390625 6.34375 -6.203125 6.34375 -4.078125 C 6.34375 -2.046875 5.515625 -0.859375 4.125 -0.859375 C 2.75 -0.859375 1.953125 -2.0625 1.953125 -4.125 C 1.953125 -6.171875 2.75 -7.390625 4.125 -7.390625 Z M 4.125 -7.390625 "/>
</symbol>
<symbol overflow="visible" id="glyph2-7">
<path style="stroke:none;" d="M 1.109375 -8.390625 L 1.109375 0 L 2.453125 0 L 2.453125 -4.359375 C 2.46875 -6.375 3.296875 -7.265625 5.140625 -7.21875 L 5.140625 -8.578125 C 4.90625 -8.609375 4.78125 -8.625 4.625 -8.625 C 3.765625 -8.625 3.109375 -8.109375 2.34375 -6.859375 L 2.34375 -8.390625 Z M 1.109375 -8.390625 "/>
</symbol>
<symbol overflow="visible" id="glyph2-8">
<path style="stroke:none;" d="M 7.71875 0 L 7.71875 -8.390625 L 6.390625 -8.390625 L 6.390625 -3.625 C 6.390625 -1.921875 5.484375 -0.796875 4.09375 -0.796875 C 3.046875 -0.796875 2.375 -1.4375 2.375 -2.453125 L 2.375 -8.390625 L 1.046875 -8.390625 L 1.046875 -1.921875 C 1.046875 -0.53125 2.078125 0.375 3.71875 0.375 C 4.9375 0.375 5.734375 -0.0625 6.515625 -1.171875 L 6.515625 0 Z M 7.71875 0 "/>
</symbol>
<symbol overflow="visible" id="glyph2-9">
<path style="stroke:none;" d="M 2.9375 -4.9375 L 6.609375 -4.9375 C 7.515625 -4.9375 8.234375 -5.21875 8.859375 -5.78125 C 9.5625 -6.421875 9.875 -7.171875 9.875 -8.234375 C 9.875 -10.4375 8.578125 -11.65625 6.265625 -11.65625 L 1.453125 -11.65625 L 1.453125 0 L 2.9375 0 Z M 2.9375 -6.25 L 2.9375 -10.359375 L 6.046875 -10.359375 C 7.46875 -10.359375 8.3125 -9.578125 8.3125 -8.296875 C 8.3125 -7.03125 7.46875 -6.25 6.046875 -6.25 Z M 2.9375 -6.25 "/>
</symbol>
<symbol overflow="visible" id="glyph2-10">
<path style="stroke:none;" d="M 4.0625 -8.390625 L 2.6875 -8.390625 L 2.6875 -10.6875 L 1.359375 -10.6875 L 1.359375 -8.390625 L 0.21875 -8.390625 L 0.21875 -7.296875 L 1.359375 -7.296875 L 1.359375 -0.953125 C 1.359375 -0.09375 1.9375 0.375 2.96875 0.375 C 3.328125 0.375 3.609375 0.34375 4.0625 0.25 L 4.0625 -0.859375 C 3.875 -0.8125 3.703125 -0.796875 3.421875 -0.796875 C 2.84375 -0.796875 2.6875 -0.953125 2.6875 -1.546875 L 2.6875 -7.296875 L 4.0625 -7.296875 Z M 4.0625 -8.390625 "/>
</symbol>
<symbol overflow="visible" id="glyph2-11">
<path style="stroke:none;" d="M 2.40625 -8.390625 L 1.078125 -8.390625 L 1.078125 0 L 2.40625 0 Z M 2.40625 -11.65625 L 1.0625 -11.65625 L 1.0625 -9.984375 L 2.40625 -9.984375 Z M 2.40625 -11.65625 "/>
</symbol>
<symbol overflow="visible" id="glyph2-12">
<path style="stroke:none;" d="M 1.125 -8.390625 L 1.125 0 L 2.46875 0 L 2.46875 -4.625 C 2.46875 -6.34375 3.359375 -7.453125 4.734375 -7.453125 C 5.796875 -7.453125 6.46875 -6.8125 6.46875 -5.8125 L 6.46875 0 L 7.796875 0 L 7.796875 -6.34375 C 7.796875 -7.734375 6.75 -8.625 5.140625 -8.625 C 3.890625 -8.625 3.09375 -8.140625 2.359375 -6.96875 L 2.359375 -8.390625 Z M 1.125 -8.390625 "/>
</symbol>
<symbol overflow="visible" id="glyph2-13">
<path style="stroke:none;" d="M 9.53125 -8.234375 C 9.53125 -9.046875 9.484375 -9.265625 9.234375 -9.8125 C 8.59375 -11.15625 7.234375 -11.859375 5.265625 -11.859375 C 2.703125 -11.859375 1.125 -10.546875 1.125 -8.4375 C 1.125 -7.015625 1.875 -6.109375 3.40625 -5.71875 L 6.296875 -4.9375 C 7.796875 -4.5625 8.453125 -3.96875 8.453125 -3.0625 C 8.453125 -2.4375 8.109375 -1.796875 7.609375 -1.4375 C 7.15625 -1.109375 6.421875 -0.9375 5.46875 -0.9375 C 4.1875 -0.9375 3.34375 -1.25 2.78125 -1.921875 C 2.359375 -2.4375 2.15625 -2.984375 2.171875 -3.71875 L 0.765625 -3.71875 C 0.78125 -2.640625 0.984375 -1.9375 1.453125 -1.296875 C 2.25 -0.1875 3.59375 0.375 5.375 0.375 C 6.765625 0.375 7.90625 0.046875 8.65625 -0.53125 C 9.4375 -1.15625 9.9375 -2.1875 9.9375 -3.203125 C 9.9375 -4.640625 9.046875 -5.703125 7.453125 -6.125 L 4.53125 -6.90625 C 3.125 -7.296875 2.609375 -7.75 2.609375 -8.640625 C 2.609375 -9.828125 3.640625 -10.609375 5.21875 -10.609375 C 7.078125 -10.609375 8.109375 -9.78125 8.125 -8.234375 Z M 9.53125 -8.234375 "/>
</symbol>
<symbol overflow="visible" id="glyph2-14">
<path style="stroke:none;" d="M 8.203125 -3.75 C 8.203125 -5.03125 8.109375 -5.796875 7.875 -6.421875 C 7.328125 -7.796875 6.046875 -8.625 4.484375 -8.625 C 2.140625 -8.625 0.640625 -6.84375 0.640625 -4.078125 C 0.640625 -1.3125 2.078125 0.375 4.453125 0.375 C 6.375 0.375 7.703125 -0.71875 8.03125 -2.546875 L 6.6875 -2.546875 C 6.3125 -1.4375 5.5625 -0.859375 4.5 -0.859375 C 3.640625 -0.859375 2.921875 -1.25 2.484375 -1.953125 C 2.15625 -2.4375 2.046875 -2.90625 2.03125 -3.75 Z M 2.0625 -4.828125 C 2.171875 -6.390625 3.125 -7.390625 4.46875 -7.390625 C 5.828125 -7.390625 6.765625 -6.34375 6.765625 -4.828125 Z M 2.0625 -4.828125 "/>
</symbol>
<symbol overflow="visible" id="glyph2-15">
<path style="stroke:none;" d="M 4.671875 -4.34375 L 7.484375 -8.390625 L 5.984375 -8.390625 L 3.96875 -5.34375 L 1.953125 -8.390625 L 0.4375 -8.390625 L 3.234375 -4.265625 L 0.265625 0 L 1.796875 0 L 3.921875 -3.21875 L 6.015625 0 L 7.5625 0 Z M 4.671875 -4.34375 "/>
</symbol>
<symbol overflow="visible" id="glyph3-0">
<path style="stroke:none;" d=""/>
</symbol>
<symbol overflow="visible" id="glyph3-1">
<path style="stroke:none;" d="M -11.65625 -2.765625 L -11.65625 -1.28125 L 0 -1.28125 L 0 -8.53125 L -1.3125 -8.53125 L -1.3125 -2.765625 Z M -11.65625 -2.765625 "/>
</symbol>
<symbol overflow="visible" id="glyph3-2">
<path style="stroke:none;" d="M -3.75 -8.203125 C -5.03125 -8.203125 -5.796875 -8.109375 -6.421875 -7.875 C -7.796875 -7.328125 -8.625 -6.046875 -8.625 -4.484375 C -8.625 -2.140625 -6.84375 -0.640625 -4.078125 -0.640625 C -1.3125 -0.640625 0.375 -2.078125 0.375 -4.453125 C 0.375 -6.375 -0.71875 -7.703125 -2.546875 -8.03125 L -2.546875 -6.6875 C -1.4375 -6.3125 -0.859375 -5.5625 -0.859375 -4.5 C -0.859375 -3.640625 -1.25 -2.921875 -1.953125 -2.484375 C -2.4375 -2.15625 -2.90625 -2.046875 -3.75 -2.03125 Z M -4.828125 -2.0625 C -6.390625 -2.171875 -7.390625 -3.125 -7.390625 -4.46875 C -7.390625 -5.828125 -6.34375 -6.765625 -4.828125 -6.765625 Z M -4.828125 -2.0625 "/>
</symbol>
<symbol overflow="visible" id="glyph3-3">
<path style="stroke:none;" d="M -8.390625 -1.125 L 0 -1.125 L 0 -2.46875 L -4.625 -2.46875 C -6.34375 -2.46875 -7.453125 -3.359375 -7.453125 -4.734375 C -7.453125 -5.796875 -6.8125 -6.46875 -5.8125 -6.46875 L 0 -6.46875 L 0 -7.796875 L -6.34375 -7.796875 C -7.734375 -7.796875 -8.625 -6.75 -8.625 -5.140625 C -8.625 -3.890625 -8.140625 -3.09375 -6.96875 -2.359375 L -8.390625 -2.359375 Z M -8.390625 -1.125 "/>
</symbol>
<symbol overflow="visible" id="glyph3-4">
<path style="stroke:none;" d="M -8.390625 -6.46875 L -7.171875 -6.46875 C -8.171875 -5.796875 -8.625 -5.0625 -8.625 -4 C -8.625 -1.96875 -6.734375 -0.5625 -4.046875 -0.5625 C -2.640625 -0.5625 -1.609375 -0.890625 -0.765625 -1.609375 C -0.03125 -2.234375 0.375 -3.046875 0.375 -3.90625 C 0.375 -4.90625 -0.078125 -5.625 -1.140625 -6.34375 L -0.703125 -6.34375 C 1.53125 -6.34375 2.375 -5.71875 2.375 -4.046875 C 2.375 -2.90625 1.921875 -2.3125 0.953125 -2.1875 L 0.953125 -0.828125 C 2.515625 -0.953125 3.484375 -2.1875 3.484375 -4.015625 C 3.484375 -5.25 3.09375 -6.265625 2.421875 -6.8125 C 1.625 -7.453125 0.59375 -7.703125 -1.375 -7.703125 L -8.390625 -7.703125 Z M -7.390625 -4.125 C -7.390625 -5.53125 -6.203125 -6.34375 -4.078125 -6.34375 C -2.046875 -6.34375 -0.859375 -5.515625 -0.859375 -4.125 C -0.859375 -2.75 -2.0625 -1.953125 -4.125 -1.953125 C -6.171875 -1.953125 -7.390625 -2.75 -7.390625 -4.125 Z M -7.390625 -4.125 "/>
</symbol>
<symbol overflow="visible" id="glyph3-5">
<path style="stroke:none;" d="M -8.390625 -4.0625 L -8.390625 -2.6875 L -10.6875 -2.6875 L -10.6875 -1.359375 L -8.390625 -1.359375 L -8.390625 -0.21875 L -7.296875 -0.21875 L -7.296875 -1.359375 L -0.953125 -1.359375 C -0.09375 -1.359375 0.375 -1.9375 0.375 -2.96875 C 0.375 -3.328125 0.34375 -3.609375 0.25 -4.0625 L -0.859375 -4.0625 C -0.8125 -3.875 -0.796875 -3.703125 -0.796875 -3.421875 C -0.796875 -2.84375 -0.953125 -2.6875 -1.546875 -2.6875 L -7.296875 -2.6875 L -7.296875 -4.0625 Z M -8.390625 -4.0625 "/>
</symbol>
<symbol overflow="visible" id="glyph3-6">
<path style="stroke:none;" d="M -11.65625 -1.125 L 0 -1.125 L 0 -2.453125 L -4.625 -2.453125 C -6.34375 -2.453125 -7.453125 -3.34375 -7.453125 -4.71875 C -7.453125 -5.171875 -7.328125 -5.578125 -7.09375 -5.90625 C -6.796875 -6.28125 -6.40625 -6.453125 -5.8125 -6.453125 L 0 -6.453125 L 0 -7.78125 L -6.34375 -7.78125 C -7.75 -7.78125 -8.625 -6.765625 -8.625 -5.140625 C -8.625 -3.953125 -8.25 -3.234375 -7.234375 -2.453125 L -11.65625 -2.453125 Z M -11.65625 -1.125 "/>
</symbol>
<symbol overflow="visible" id="glyph3-7">
<path style="stroke:none;" d="M -1.65625 -1.390625 L 0 -1.390625 L 0 -2.359375 L 0.28125 -2.359375 C 1.390625 -2.359375 1.71875 -2.140625 1.75 -1.390625 L 2.359375 -1.390625 C 2.390625 -2.453125 1.609375 -3.078125 0.25 -3.078125 L -1.65625 -3.078125 Z M -1.65625 -1.390625 "/>
</symbol>
<symbol overflow="visible" id="glyph3-8">
<path style="stroke:none;" d=""/>
</symbol>
<symbol overflow="visible" id="glyph3-9">
<path style="stroke:none;" d="M -8.390625 -1.125 L 0 -1.125 L 0 -2.46875 L -5.265625 -2.46875 C -6.484375 -2.46875 -7.453125 -3.34375 -7.453125 -4.4375 C -7.453125 -5.421875 -6.84375 -5.984375 -5.78125 -5.984375 L 0 -5.984375 L 0 -7.328125 L -5.265625 -7.328125 C -6.484375 -7.328125 -7.453125 -8.203125 -7.453125 -9.296875 C -7.453125 -10.265625 -6.828125 -10.84375 -5.78125 -10.84375 L 0 -10.84375 L 0 -12.1875 L -6.28125 -12.1875 C -7.796875 -12.1875 -8.625 -11.328125 -8.625 -9.765625 C -8.625 -8.640625 -8.28125 -7.96875 -7.34375 -7.1875 C -8.234375 -6.6875 -8.625 -6.015625 -8.625 -4.921875 C -8.625 -3.8125 -8.203125 -3.0625 -7.203125 -2.359375 L -8.390625 -2.359375 Z M -8.390625 -1.125 "/>
</symbol>
</g>
<clipPath id="clip1">
  <path d="M 49.128906 7.96875 L 316.148438 7.96875 L 316.148438 311.871094 L 49.128906 311.871094 Z M 49.128906 7.96875 "/>
</clipPath>
<clipPath id="clip2">
  <path d="M 49.128906 256 L 316.148438 256 L 316.148438 258 L 49.128906 258 Z M 49.128906 256 "/>
</clipPath>
<clipPath id="clip3">
  <path d="M 49.128906 145 L 316.148438 145 L 316.148438 147 L 49.128906 147 Z M 49.128906 145 "/>
</clipPath>
<clipPath id="clip4">
  <path d="M 49.128906 35 L 316.148438 35 L 316.148438 36 L 49.128906 36 Z M 49.128906 35 "/>
</clipPath>
<clipPath id="clip5">
  <path d="M 49.128906 311 L 316.148438 311 L 316.148438 311.871094 L 49.128906 311.871094 Z M 49.128906 311 "/>
</clipPath>
<clipPath id="clip6">
  <path d="M 49.128906 200 L 316.148438 200 L 316.148438 203 L 49.128906 203 Z M 49.128906 200 "/>
</clipPath>
<clipPath id="clip7">
  <path d="M 49.128906 90 L 316.148438 90 L 316.148438 92 L 49.128906 92 Z M 49.128906 90 "/>
</clipPath>
<clipPath id="clip8">
  <path d="M 121 7.96875 L 123 7.96875 L 123 311.871094 L 121 311.871094 Z M 121 7.96875 "/>
</clipPath>
<clipPath id="clip9">
  <path d="M 242 7.96875 L 245 7.96875 L 245 311.871094 L 242 311.871094 Z M 242 7.96875 "/>
</clipPath>
<clipPath id="clip10">
  <path d="M 49.128906 7.96875 L 316.148438 7.96875 L 316.148438 311.871094 L 49.128906 311.871094 Z M 49.128906 7.96875 "/>
</clipPath>
</defs>
<g id="surface1150">
<rect x="0" y="0" width="432" height="360" style="fill:rgb(100%,100%,100%);fill-opacity:1;stroke:none;"/>
<rect x="0" y="0" width="432" height="360" style="fill:rgb(100%,100%,100%);fill-opacity:1;stroke:none;"/>
<path style="fill:none;stroke-width:1.551969;stroke-linecap:round;stroke-linejoin:round;stroke:rgb(100%,100%,100%);stroke-opacity:1;stroke-miterlimit:10;" d="M 0 360 L 432 360 L 432 0 L 0 0 Z M 0 360 "/>
<g clip-path="url(#clip1)" clip-rule="nonzero">
<path style=" stroke:none;fill-rule:nonzero;fill:rgb(100%,100%,100%);fill-opacity:1;" d="M 49.128906 311.871094 L 316.148438 311.871094 L 316.148438 7.96875 L 49.128906 7.96875 Z M 49.128906 311.871094 "/>
</g>
<g clip-path="url(#clip2)" clip-rule="nonzero">
<path style="fill:none;stroke-width:0.775984;stroke-linecap:butt;stroke-linejoin:round;stroke:rgb(92.156863%,92.156863%,92.156863%);stroke-opacity:1;stroke-miterlimit:10;" d="M 49.128906 256.617188 L 316.148438 256.617188 "/>
</g>
<g clip-path="url(#clip3)" clip-rule="nonzero">
<path style="fill:none;stroke-width:0.775984;stroke-linecap:butt;stroke-linejoin:round;stroke:rgb(92.156863%,92.156863%,92.156863%);stroke-opacity:1;stroke-miterlimit:10;" d="M 49.128906 146.105469 L 316.148438 146.105469 "/>
</g>
<g clip-path="url(#clip4)" clip-rule="nonzero">
<path style="fill:none;stroke-width:0.775984;stroke-linecap:butt;stroke-linejoin:round;stroke:rgb(92.156863%,92.156863%,92.156863%);stroke-opacity:1;stroke-miterlimit:10;" d="M 49.128906 35.597656 L 316.148438 35.597656 "/>
</g>
<g clip-path="url(#clip5)" clip-rule="nonzero">
<path style="fill:none;stroke-width:1.551969;stroke-linecap:butt;stroke-linejoin:round;stroke:rgb(92.156863%,92.156863%,92.156863%);stroke-opacity:1;stroke-miterlimit:10;" d="M 49.128906 311.871094 L 316.148438 311.871094 "/>
</g>
<g clip-path="url(#clip6)" clip-rule="nonzero">
<path style="fill:none;stroke-width:1.551969;stroke-linecap:butt;stroke-linejoin:round;stroke:rgb(92.156863%,92.156863%,92.156863%);stroke-opacity:1;stroke-miterlimit:10;" d="M 49.128906 201.363281 L 316.148438 201.363281 "/>
</g>
<g clip-path="url(#clip7)" clip-rule="nonzero">
<path style="fill:none;stroke-width:1.551969;stroke-linecap:butt;stroke-linejoin:round;stroke:rgb(92.156863%,92.156863%,92.156863%);stroke-opacity:1;stroke-miterlimit:10;" d="M 49.128906 90.851562 L 316.148438 90.851562 "/>
</g>
<g clip-path="url(#clip8)" clip-rule="nonzero">
<path style="fill:none;stroke-width:1.551969;stroke-linecap:butt;stroke-linejoin:round;stroke:rgb(92.156863%,92.156863%,92.156863%);stroke-opacity:1;stroke-miterlimit:10;" d="M 121.953125 311.871094 L 121.953125 7.96875 "/>
</g>
<g clip-path="url(#clip9)" clip-rule="nonzero">
<path style="fill:none;stroke-width:1.551969;stroke-linecap:butt;stroke-linejoin:round;stroke:rgb(92.156863%,92.156863%,92.156863%);stroke-opacity:1;stroke-miterlimit:10;" d="M 243.324219 311.871094 L 243.324219 7.96875 "/>
</g>
<path style="fill:none;stroke-width:1.551969;stroke-linecap:butt;stroke-linejoin:round;stroke:rgb(26.666667%,46.666667%,66.666667%);stroke-opacity:1;stroke-miterlimit:10;" d="M 99.195312 108.347656 L 99.195312 94.71875 "/>
<path style="fill:none;stroke-width:1.551969;stroke-linecap:butt;stroke-linejoin:round;stroke:rgb(26.666667%,46.666667%,66.666667%);stroke-opacity:1;stroke-miterlimit:10;" d="M 99.195312 127.9375 L 99.195312 147.644531 "/>
<path style="fill-rule:nonzero;fill:rgb(100%,100%,100%);fill-opacity:1;stroke-width:1.551969;stroke-linecap:butt;stroke-linejoin:miter;stroke:rgb(26.666667%,46.666667%,66.666667%);stroke-opacity:1;stroke-miterlimit:10;" d="M 78.714844 108.347656 L 78.714844 127.9375 L 119.675781 127.9375 L 119.675781 108.347656 Z M 78.714844 108.347656 "/>
<path style="fill:none;stroke-width:3.103937;stroke-linecap:butt;stroke-linejoin:miter;stroke:rgb(26.666667%,46.666667%,66.666667%);stroke-opacity:1;stroke-miterlimit:10;" d="M 78.714844 120.46875 L 119.675781 120.46875 "/>
<path style="fill:none;stroke-width:1.551969;stroke-linecap:butt;stroke-linejoin:round;stroke:rgb(26.666667%,46.666667%,66.666667%);stroke-opacity:1;stroke-miterlimit:10;" d="M 144.710938 84.550781 L 144.710938 55.28125 "/>
<path style="fill:none;stroke-width:1.551969;stroke-linecap:butt;stroke-linejoin:round;stroke:rgb(26.666667%,46.666667%,66.666667%);stroke-opacity:1;stroke-miterlimit:10;" d="M 144.710938 123.347656 L 144.710938 170.441406 "/>
<path style="fill-rule:nonzero;fill:rgb(100%,100%,100%);fill-opacity:1;stroke-width:1.551969;stroke-linecap:butt;stroke-linejoin:miter;stroke:rgb(26.666667%,46.666667%,66.666667%);stroke-opacity:1;stroke-miterlimit:10;" d="M 124.226562 84.550781 L 124.226562 123.347656 L 165.191406 123.347656 L 165.191406 84.550781 Z M 124.226562 84.550781 "/>
<path style="fill:none;stroke-width:3.103937;stroke-linecap:butt;stroke-linejoin:miter;stroke:rgb(26.666667%,46.666667%,66.666667%);stroke-opacity:1;stroke-miterlimit:10;" d="M 124.226562 100.496094 L 165.191406 100.496094 "/>
<path style="fill:none;stroke-width:1.551969;stroke-linecap:butt;stroke-linejoin:round;stroke:rgb(94.117647%,89.411765%,25.882353%);stroke-opacity:1;stroke-miterlimit:10;" d="M 220.566406 110.355469 L 220.566406 86.90625 "/>
<path style="fill:none;stroke-width:1.551969;stroke-linecap:butt;stroke-linejoin:round;stroke:rgb(94.117647%,89.411765%,25.882353%);stroke-opacity:1;stroke-miterlimit:10;" d="M 220.566406 140.40625 L 220.566406 155.535156 "/>
<path style="fill-rule:nonzero;fill:rgb(100%,100%,100%);fill-opacity:1;stroke-width:1.551969;stroke-linecap:butt;stroke-linejoin:miter;stroke:rgb(94.117647%,89.411765%,25.882353%);stroke-opacity:1;stroke-miterlimit:10;" d="M 200.085938 110.355469 L 200.085938 140.40625 L 241.050781 140.40625 L 241.050781 110.355469 Z M 200.085938 110.355469 "/>
<path style="fill:none;stroke-width:3.103937;stroke-linecap:butt;stroke-linejoin:miter;stroke:rgb(94.117647%,89.411765%,25.882353%);stroke-opacity:1;stroke-miterlimit:10;" d="M 200.085938 126.503906 L 241.050781 126.503906 "/>
<path style="fill:none;stroke-width:1.551969;stroke-linecap:butt;stroke-linejoin:round;stroke:rgb(94.117647%,89.411765%,25.882353%);stroke-opacity:1;stroke-miterlimit:10;" d="M 266.082031 82.308594 L 266.082031 64.441406 "/>
<path style="fill:none;stroke-width:1.551969;stroke-linecap:butt;stroke-linejoin:round;stroke:rgb(94.117647%,89.411765%,25.882353%);stroke-opacity:1;stroke-miterlimit:10;" d="M 266.082031 111.351562 L 266.082031 123.75 "/>
<path style="fill-rule:nonzero;fill:rgb(100%,100%,100%);fill-opacity:1;stroke-width:1.551969;stroke-linecap:butt;stroke-linejoin:miter;stroke:rgb(94.117647%,89.411765%,25.882353%);stroke-opacity:1;stroke-miterlimit:10;" d="M 245.601562 82.308594 L 245.601562 111.351562 L 286.566406 111.351562 L 286.566406 82.308594 Z M 245.601562 82.308594 "/>
<path style="fill:none;stroke-width:3.103937;stroke-linecap:butt;stroke-linejoin:miter;stroke:rgb(94.117647%,89.411765%,25.882353%);stroke-opacity:1;stroke-miterlimit:10;" d="M 245.601562 92.058594 L 286.566406 92.058594 "/>
<path style=" stroke:none;fill-rule:nonzero;fill:rgb(26.666667%,46.666667%,66.666667%);fill-opacity:1;" d="M 103.480469 112.8125 C 103.480469 116.601562 97.792969 116.601562 97.792969 112.8125 C 97.792969 109.019531 103.480469 109.019531 103.480469 112.8125 "/>
<path style=" stroke:none;fill-rule:nonzero;fill:rgb(26.666667%,46.666667%,66.666667%);fill-opacity:1;" d="M 104.914062 105.539062 C 104.914062 109.332031 99.226562 109.332031 99.226562 105.539062 C 99.226562 101.746094 104.914062 101.746094 104.914062 105.539062 "/>
<path style=" stroke:none;fill-rule:nonzero;fill:rgb(26.666667%,46.666667%,66.666667%);fill-opacity:1;" d="M 108.332031 116.335938 C 108.332031 120.128906 102.644531 120.128906 102.644531 116.335938 C 102.644531 112.542969 108.332031 112.542969 108.332031 116.335938 "/>
<path style=" stroke:none;fill-rule:nonzero;fill:rgb(26.666667%,46.666667%,66.666667%);fill-opacity:1;" d="M 97.089844 124.058594 C 97.089844 127.851562 91.40625 127.851562 91.40625 124.058594 C 91.40625 120.269531 97.089844 120.269531 97.089844 124.058594 "/>
<path style=" stroke:none;fill-rule:nonzero;fill:rgb(26.666667%,46.666667%,66.666667%);fill-opacity:1;" d="M 95.851562 111.441406 C 95.851562 115.230469 90.164062 115.230469 90.164062 111.441406 C 90.164062 107.648438 95.851562 107.648438 95.851562 111.441406 "/>
<path style=" stroke:none;fill-rule:nonzero;fill:rgb(26.666667%,46.666667%,66.666667%);fill-opacity:1;" d="M 95.824219 120.46875 C 95.824219 124.261719 90.136719 124.261719 90.136719 120.46875 C 90.136719 116.679688 95.824219 116.679688 95.824219 120.46875 "/>
<path style=" stroke:none;fill-rule:nonzero;fill:rgb(26.666667%,46.666667%,66.666667%);fill-opacity:1;" d="M 109.003906 127.496094 C 109.003906 131.289062 103.316406 131.289062 103.316406 127.496094 C 103.316406 123.707031 109.003906 123.707031 109.003906 127.496094 "/>
<path style=" stroke:none;fill-rule:nonzero;fill:rgb(26.666667%,46.666667%,66.666667%);fill-opacity:1;" d="M 94.277344 132.207031 C 94.277344 135.996094 88.59375 135.996094 88.59375 132.207031 C 88.59375 128.414062 94.277344 128.414062 94.277344 132.207031 "/>
<path style=" stroke:none;fill-rule:nonzero;fill:rgb(26.666667%,46.666667%,66.666667%);fill-opacity:1;" d="M 101.914062 104.125 C 101.914062 107.914062 96.226562 107.914062 96.226562 104.125 C 96.226562 100.332031 101.914062 100.332031 101.914062 104.125 "/>
<path style=" stroke:none;fill-rule:nonzero;fill:rgb(26.666667%,46.666667%,66.666667%);fill-opacity:1;" d="M 106.414062 127.9375 C 106.414062 131.730469 100.726562 131.730469 100.726562 127.9375 C 100.726562 124.148438 106.414062 124.148438 106.414062 127.9375 "/>
<path style=" stroke:none;fill-rule:nonzero;fill:rgb(26.666667%,46.666667%,66.666667%);fill-opacity:1;" d="M 94.664062 131.253906 C 94.664062 135.046875 88.976562 135.046875 88.976562 131.253906 C 88.976562 127.464844 94.664062 127.464844 94.664062 131.253906 "/>
<path style=" stroke:none;fill-rule:nonzero;fill:rgb(26.666667%,46.666667%,66.666667%);fill-opacity:1;" d="M 101.699219 108.148438 C 101.699219 111.9375 96.015625 111.9375 96.015625 108.148438 C 96.015625 104.355469 101.699219 104.355469 101.699219 108.148438 "/>
<path style=" stroke:none;fill-rule:nonzero;fill:rgb(26.666667%,46.666667%,66.666667%);fill-opacity:1;" d="M 96.140625 124.183594 C 96.140625 127.972656 90.453125 127.972656 90.453125 124.183594 C 90.453125 120.390625 96.140625 120.390625 96.140625 124.183594 "/>
<path style=" stroke:none;fill-rule:nonzero;fill:rgb(26.666667%,46.666667%,66.666667%);fill-opacity:1;" d="M 100.226562 117.453125 C 100.226562 121.242188 94.539062 121.242188 94.539062 117.453125 C 94.539062 113.660156 100.226562 113.660156 100.226562 117.453125 "/>
<path style=" stroke:none;fill-rule:nonzero;fill:rgb(26.666667%,46.666667%,66.666667%);fill-opacity:1;" d="M 100.722656 108.347656 C 100.722656 112.136719 95.035156 112.136719 95.035156 108.347656 C 95.035156 104.554688 100.722656 104.554688 100.722656 108.347656 "/>
<path style=" stroke:none;fill-rule:nonzero;fill:rgb(26.666667%,46.666667%,66.666667%);fill-opacity:1;" d="M 101.179688 122.957031 C 101.179688 126.746094 95.492188 126.746094 95.492188 122.957031 C 95.492188 119.164062 101.179688 119.164062 101.179688 122.957031 "/>
<path style=" stroke:none;fill-rule:nonzero;fill:rgb(26.666667%,46.666667%,66.666667%);fill-opacity:1;" d="M 104.117188 146.539062 C 104.117188 150.328125 98.429688 150.328125 98.429688 146.539062 C 98.429688 142.746094 104.117188 142.746094 104.117188 146.539062 "/>
<path style=" stroke:none;fill-rule:nonzero;fill:rgb(26.666667%,46.666667%,66.666667%);fill-opacity:1;" d="M 109.332031 94.71875 C 109.332031 98.511719 103.644531 98.511719 103.644531 94.71875 C 103.644531 90.929688 109.332031 90.929688 109.332031 94.71875 "/>
<path style=" stroke:none;fill-rule:nonzero;fill:rgb(26.666667%,46.666667%,66.666667%);fill-opacity:1;" d="M 93.796875 98.144531 C 93.796875 101.9375 88.109375 101.9375 88.109375 98.144531 C 88.109375 94.355469 93.796875 94.355469 93.796875 98.144531 "/>
<path style=" stroke:none;fill-rule:nonzero;fill:rgb(26.666667%,46.666667%,66.666667%);fill-opacity:1;" d="M 109.25 136.195312 C 109.25 139.984375 103.566406 139.984375 103.566406 136.195312 C 103.566406 132.402344 109.25 132.402344 109.25 136.195312 "/>
<path style=" stroke:none;fill-rule:nonzero;fill:rgb(26.666667%,46.666667%,66.666667%);fill-opacity:1;" d="M 99.464844 147.644531 C 99.464844 151.433594 93.78125 151.433594 93.78125 147.644531 C 93.78125 143.851562 99.464844 143.851562 99.464844 147.644531 "/>
<path style=" stroke:none;fill-rule:nonzero;fill:rgb(26.666667%,46.666667%,66.666667%);fill-opacity:1;" d="M 149.9375 99.59375 L 153.769531 106.226562 L 146.109375 106.226562 Z M 149.9375 99.59375 "/>
<path style=" stroke:none;fill-rule:nonzero;fill:rgb(26.666667%,46.666667%,66.666667%);fill-opacity:1;" d="M 137.851562 109.171875 L 141.683594 115.804688 L 134.023438 115.804688 Z M 137.851562 109.171875 "/>
<path style=" stroke:none;fill-rule:nonzero;fill:rgb(26.666667%,46.666667%,66.666667%);fill-opacity:1;" d="M 140.636719 144.140625 L 144.464844 150.769531 L 136.804688 150.769531 Z M 140.636719 144.140625 "/>
<path style=" stroke:none;fill-rule:nonzero;fill:rgb(26.666667%,46.666667%,66.666667%);fill-opacity:1;" d="M 149.359375 50.859375 L 153.191406 57.488281 L 145.53125 57.488281 Z M 149.359375 50.859375 "/>
<path style=" stroke:none;fill-rule:nonzero;fill:rgb(26.666667%,46.666667%,66.666667%);fill-opacity:1;" d="M 152.5625 113.164062 L 156.390625 119.796875 L 148.734375 119.796875 Z M 152.5625 113.164062 "/>
<path style=" stroke:none;fill-rule:nonzero;fill:rgb(26.666667%,46.666667%,66.666667%);fill-opacity:1;" d="M 146.230469 64.96875 L 150.058594 71.601562 L 142.398438 71.601562 Z M 146.230469 64.96875 "/>
<path style=" stroke:none;fill-rule:nonzero;fill:rgb(26.666667%,46.666667%,66.666667%);fill-opacity:1;" d="M 138.691406 63.269531 L 142.523438 69.902344 L 134.863281 69.902344 Z M 138.691406 63.269531 "/>
<path style=" stroke:none;fill-rule:nonzero;fill:rgb(26.666667%,46.666667%,66.666667%);fill-opacity:1;" d="M 151.175781 78.097656 L 155.007812 84.730469 L 147.347656 84.730469 Z M 151.175781 78.097656 "/>
<path style=" stroke:none;fill-rule:nonzero;fill:rgb(26.666667%,46.666667%,66.666667%);fill-opacity:1;" d="M 135.757812 122.765625 L 139.585938 129.398438 L 131.925781 129.398438 Z M 135.757812 122.765625 "/>
<path style=" stroke:none;fill-rule:nonzero;fill:rgb(26.666667%,46.666667%,66.666667%);fill-opacity:1;" d="M 147.164062 101.703125 L 150.992188 108.335938 L 143.332031 108.335938 Z M 147.164062 101.703125 "/>
<path style=" stroke:none;fill-rule:nonzero;fill:rgb(26.666667%,46.666667%,66.666667%);fill-opacity:1;" d="M 140.554688 121.195312 L 144.382812 127.828125 L 136.726562 127.828125 Z M 140.554688 121.195312 "/>
<path style=" stroke:none;fill-rule:nonzero;fill:rgb(26.666667%,46.666667%,66.666667%);fill-opacity:1;" d="M 140.78125 81.765625 L 144.609375 88.398438 L 136.953125 88.398438 Z M 140.78125 81.765625 "/>
<path style=" stroke:none;fill-rule:nonzero;fill:rgb(26.666667%,46.666667%,66.666667%);fill-opacity:1;" d="M 151.691406 166.019531 L 155.519531 172.652344 L 147.859375 172.652344 Z M 151.691406 166.019531 "/>
<path style=" stroke:none;fill-rule:nonzero;fill:rgb(26.666667%,46.666667%,66.666667%);fill-opacity:1;" d="M 136.746094 80.804688 L 140.574219 87.4375 L 132.917969 87.4375 Z M 136.746094 80.804688 "/>
<path style=" stroke:none;fill-rule:nonzero;fill:rgb(26.666667%,46.666667%,66.666667%);fill-opacity:1;" d="M 145.347656 87.921875 L 149.175781 94.554688 L 141.519531 94.554688 Z M 145.347656 87.921875 "/>
<path style=" stroke:none;fill-rule:nonzero;fill:rgb(26.666667%,46.666667%,66.666667%);fill-opacity:1;" d="M 151.273438 122.191406 L 155.105469 128.824219 L 147.445312 128.824219 Z M 151.273438 122.191406 "/>
<path style=" stroke:none;fill-rule:nonzero;fill:rgb(26.666667%,46.666667%,66.666667%);fill-opacity:1;" d="M 140.5625 91.335938 L 144.390625 97.96875 L 136.734375 97.96875 Z M 140.5625 91.335938 "/>
<path style=" stroke:none;fill-rule:nonzero;fill:rgb(26.666667%,46.666667%,66.666667%);fill-opacity:1;" d="M 137.839844 92.554688 L 141.667969 99.183594 L 134.007812 99.183594 Z M 137.839844 92.554688 "/>
<path style=" stroke:none;fill-rule:nonzero;fill:rgb(26.666667%,46.666667%,66.666667%);fill-opacity:1;" d="M 142.441406 73.832031 L 146.269531 80.464844 L 138.613281 80.464844 Z M 142.441406 73.832031 "/>
<path style=" stroke:none;fill-rule:nonzero;fill:rgb(26.666667%,46.666667%,66.666667%);fill-opacity:1;" d="M 136.4375 118.167969 L 140.269531 124.800781 L 132.609375 124.800781 Z M 136.4375 118.167969 "/>
<path style=" stroke:none;fill-rule:nonzero;fill:rgb(94.117647%,89.411765%,25.882353%);fill-opacity:1;" d="M 217.328125 112.921875 C 217.328125 116.710938 211.640625 116.710938 211.640625 112.921875 C 211.640625 109.128906 217.328125 109.128906 217.328125 112.921875 "/>
<path style=" stroke:none;fill-rule:nonzero;fill:rgb(94.117647%,89.411765%,25.882353%);fill-opacity:1;" d="M 223.824219 140.40625 C 223.824219 144.195312 218.140625 144.195312 218.140625 140.40625 C 218.140625 136.613281 223.824219 136.613281 223.824219 140.40625 "/>
<path style=" stroke:none;fill-rule:nonzero;fill:rgb(94.117647%,89.411765%,25.882353%);fill-opacity:1;" d="M 227.457031 99.207031 C 227.457031 102.996094 221.769531 102.996094 221.769531 99.207031 C 221.769531 95.414062 227.457031 95.414062 227.457031 99.207031 "/>
<path style=" stroke:none;fill-rule:nonzero;fill:rgb(94.117647%,89.411765%,25.882353%);fill-opacity:1;" d="M 216.375 132.335938 C 216.375 136.128906 210.6875 136.128906 210.6875 132.335938 C 210.6875 128.546875 216.375 128.546875 216.375 132.335938 "/>
<path style=" stroke:none;fill-rule:nonzero;fill:rgb(94.117647%,89.411765%,25.882353%);fill-opacity:1;" d="M 216.714844 155.535156 C 216.714844 159.324219 211.027344 159.324219 211.027344 155.535156 C 211.027344 151.742188 216.714844 151.742188 216.714844 155.535156 "/>
<path style=" stroke:none;fill-rule:nonzero;fill:rgb(94.117647%,89.411765%,25.882353%);fill-opacity:1;" d="M 216.40625 126.503906 C 216.40625 130.292969 210.71875 130.292969 210.71875 126.503906 C 210.71875 122.710938 216.40625 122.710938 216.40625 126.503906 "/>
<path style=" stroke:none;fill-rule:nonzero;fill:rgb(94.117647%,89.411765%,25.882353%);fill-opacity:1;" d="M 230.683594 86.90625 C 230.683594 90.699219 224.996094 90.699219 224.996094 86.90625 C 224.996094 83.117188 230.683594 83.117188 230.683594 86.90625 "/>
<path style=" stroke:none;fill-rule:nonzero;fill:rgb(94.117647%,89.411765%,25.882353%);fill-opacity:1;" d="M 225.4375 136.027344 C 225.4375 139.820312 219.75 139.820312 219.75 136.027344 C 219.75 132.238281 225.4375 132.238281 225.4375 136.027344 "/>
<path style=" stroke:none;fill-rule:nonzero;fill:rgb(94.117647%,89.411765%,25.882353%);fill-opacity:1;" d="M 228.980469 113.726562 C 228.980469 117.519531 223.292969 117.519531 223.292969 113.726562 C 223.292969 109.9375 228.980469 109.9375 228.980469 113.726562 "/>
<path style=" stroke:none;fill-rule:nonzero;fill:rgb(94.117647%,89.411765%,25.882353%);fill-opacity:1;" d="M 221.371094 97.550781 C 221.371094 101.339844 215.683594 101.339844 215.683594 97.550781 C 215.683594 93.757812 221.371094 93.757812 221.371094 97.550781 "/>
<path style=" stroke:none;fill-rule:nonzero;fill:rgb(94.117647%,89.411765%,25.882353%);fill-opacity:1;" d="M 219.90625 110.355469 C 219.90625 114.148438 214.21875 114.148438 214.21875 110.355469 C 214.21875 106.566406 219.90625 106.566406 219.90625 110.355469 "/>
<path style=" stroke:none;fill-rule:nonzero;fill:rgb(94.117647%,89.411765%,25.882353%);fill-opacity:1;" d="M 225.523438 154.828125 C 225.523438 158.617188 219.835938 158.617188 219.835938 154.828125 C 219.835938 151.035156 225.523438 151.035156 225.523438 154.828125 "/>
<path style=" stroke:none;fill-rule:nonzero;fill:rgb(94.117647%,89.411765%,25.882353%);fill-opacity:1;" d="M 224.6875 194.675781 C 224.6875 198.46875 219 198.46875 219 194.675781 C 219 190.886719 224.6875 190.886719 224.6875 194.675781 "/>
<path style=" stroke:none;fill-rule:nonzero;fill:rgb(94.117647%,89.411765%,25.882353%);fill-opacity:1;" d="M 271.144531 80.960938 L 274.972656 87.59375 L 267.316406 87.59375 Z M 271.144531 80.960938 "/>
<path style=" stroke:none;fill-rule:nonzero;fill:rgb(94.117647%,89.411765%,25.882353%);fill-opacity:1;" d="M 261.660156 87.117188 L 265.492188 93.75 L 257.832031 93.75 Z M 261.660156 87.117188 "/>
<path style=" stroke:none;fill-rule:nonzero;fill:rgb(94.117647%,89.411765%,25.882353%);fill-opacity:1;" d="M 264.972656 87.636719 L 268.804688 94.269531 L 261.144531 94.269531 Z M 264.972656 87.636719 "/>
<path style=" stroke:none;fill-rule:nonzero;fill:rgb(94.117647%,89.411765%,25.882353%);fill-opacity:1;" d="M 259.460938 102.820312 L 263.292969 109.453125 L 255.632812 109.453125 Z M 259.460938 102.820312 "/>
<path style=" stroke:none;fill-rule:nonzero;fill:rgb(94.117647%,89.411765%,25.882353%);fill-opacity:1;" d="M 271.347656 111.75 L 275.179688 118.382812 L 267.519531 118.382812 Z M 271.347656 111.75 "/>
<path style=" stroke:none;fill-rule:nonzero;fill:rgb(94.117647%,89.411765%,25.882353%);fill-opacity:1;" d="M 272.261719 114.390625 L 276.089844 121.023438 L 268.429688 121.023438 Z M 272.261719 114.390625 "/>
<path style=" stroke:none;fill-rule:nonzero;fill:rgb(94.117647%,89.411765%,25.882353%);fill-opacity:1;" d="M 273.679688 60.019531 L 277.511719 66.652344 L 269.851562 66.652344 Z M 273.679688 60.019531 "/>
<path style=" stroke:none;fill-rule:nonzero;fill:rgb(94.117647%,89.411765%,25.882353%);fill-opacity:1;" d="M 264.144531 77.886719 L 267.972656 84.519531 L 260.3125 84.519531 Z M 264.144531 77.886719 "/>
<path style=" stroke:none;fill-rule:nonzero;fill:rgb(94.117647%,89.411765%,25.882353%);fill-opacity:1;" d="M 275.082031 63.863281 L 278.910156 70.496094 L 271.253906 70.496094 Z M 275.082031 63.863281 "/>
<path style=" stroke:none;fill-rule:nonzero;fill:rgb(94.117647%,89.411765%,25.882353%);fill-opacity:1;" d="M 267.140625 66.242188 L 270.972656 72.875 L 263.3125 72.875 Z M 267.140625 66.242188 "/>
<path style=" stroke:none;fill-rule:nonzero;fill:rgb(94.117647%,89.411765%,25.882353%);fill-opacity:1;" d="M 273.519531 93.855469 L 277.347656 100.488281 L 269.691406 100.488281 Z M 273.519531 93.855469 "/>
<path style=" stroke:none;fill-rule:nonzero;fill:rgb(94.117647%,89.411765%,25.882353%);fill-opacity:1;" d="M 262.636719 106.929688 L 266.464844 113.5625 L 258.808594 113.5625 Z M 262.636719 106.929688 "/>
<path style=" stroke:none;fill-rule:nonzero;fill:rgb(94.117647%,89.411765%,25.882353%);fill-opacity:1;" d="M 268.414062 119.328125 L 272.242188 125.960938 L 264.582031 125.960938 Z M 268.414062 119.328125 "/>
<g style="fill:rgb(0%,0%,0%);fill-opacity:1;">
  <use xlink:href="#glyph0-1" x="119.953125" y="60.21582"/>
</g>
<path style="fill:none;stroke-width:0.640187;stroke-linecap:round;stroke-linejoin:round;stroke:rgb(0%,0%,0%);stroke-opacity:1;stroke-miterlimit:10;" d="M 97.675781 59.707031 L 97.675781 59.707031 "/>
<path style="fill:none;stroke-width:0.640187;stroke-linecap:round;stroke-linejoin:round;stroke:rgb(0%,0%,0%);stroke-opacity:1;stroke-miterlimit:10;" d="M 97.675781 59.707031 L 146.226562 59.707031 "/>
<path style="fill:none;stroke-width:0.640187;stroke-linecap:round;stroke-linejoin:round;stroke:rgb(0%,0%,0%);stroke-opacity:1;stroke-miterlimit:10;" d="M 146.226562 59.707031 L 146.226562 59.707031 "/>
<g style="fill:rgb(0%,0%,0%);fill-opacity:1;">
  <use xlink:href="#glyph0-1" x="239.324219" y="51.055664"/>
  <use xlink:href="#glyph0-1" x="243.324219" y="51.055664"/>
</g>
<path style="fill:none;stroke-width:0.640187;stroke-linecap:round;stroke-linejoin:round;stroke:rgb(0%,0%,0%);stroke-opacity:1;stroke-miterlimit:10;" d="M 219.050781 50.546875 L 219.050781 50.546875 "/>
<path style="fill:none;stroke-width:0.640187;stroke-linecap:round;stroke-linejoin:round;stroke:rgb(0%,0%,0%);stroke-opacity:1;stroke-miterlimit:10;" d="M 219.050781 50.546875 L 267.601562 50.546875 "/>
<path style="fill:none;stroke-width:0.640187;stroke-linecap:round;stroke-linejoin:round;stroke:rgb(0%,0%,0%);stroke-opacity:1;stroke-miterlimit:10;" d="M 267.601562 50.546875 L 267.601562 50.546875 "/>
<g clip-path="url(#clip10)" clip-rule="nonzero">
<path style="fill:none;stroke-width:1.551969;stroke-linecap:round;stroke-linejoin:round;stroke:rgb(20%,20%,20%);stroke-opacity:1;stroke-miterlimit:10;" d="M 49.128906 311.871094 L 316.148438 311.871094 L 316.148438 7.96875 L 49.128906 7.96875 Z M 49.128906 311.871094 "/>
</g>
<g style="fill:rgb(30.196078%,30.196078%,30.196078%);fill-opacity:1;">
  <use xlink:href="#glyph1-1" x="34.957031" y="316.202148"/>
</g>
<g style="fill:rgb(30.196078%,30.196078%,30.196078%);fill-opacity:1;">
  <use xlink:href="#glyph1-2" x="27.957031" y="205.694336"/>
  <use xlink:href="#glyph1-1" x="34.957031" y="205.694336"/>
</g>
<g style="fill:rgb(30.196078%,30.196078%,30.196078%);fill-opacity:1;">
  <use xlink:href="#glyph1-3" x="27.957031" y="95.182617"/>
  <use xlink:href="#glyph1-1" x="34.957031" y="95.182617"/>
</g>
<path style="fill:none;stroke-width:1.551969;stroke-linecap:butt;stroke-linejoin:round;stroke:rgb(20%,20%,20%);stroke-opacity:1;stroke-miterlimit:10;" d="M 45.144531 311.871094 L 49.128906 311.871094 "/>
<path style="fill:none;stroke-width:1.551969;stroke-linecap:butt;stroke-linejoin:round;stroke:rgb(20%,20%,20%);stroke-opacity:1;stroke-miterlimit:10;" d="M 45.144531 201.363281 L 49.128906 201.363281 "/>
<path style="fill:none;stroke-width:1.551969;stroke-linecap:butt;stroke-linejoin:round;stroke:rgb(20%,20%,20%);stroke-opacity:1;stroke-miterlimit:10;" d="M 45.144531 90.851562 L 49.128906 90.851562 "/>
<path style="fill:none;stroke-width:1.551969;stroke-linecap:butt;stroke-linejoin:round;stroke:rgb(20%,20%,20%);stroke-opacity:1;stroke-miterlimit:10;" d="M 121.953125 315.855469 L 121.953125 311.871094 "/>
<path style="fill:none;stroke-width:1.551969;stroke-linecap:butt;stroke-linejoin:round;stroke:rgb(20%,20%,20%);stroke-opacity:1;stroke-miterlimit:10;" d="M 243.324219 315.855469 L 243.324219 311.871094 "/>
<g style="fill:rgb(30.196078%,30.196078%,30.196078%);fill-opacity:1;">
  <use xlink:href="#glyph1-4" x="117.453125" y="328.374023"/>
</g>
<g style="fill:rgb(30.196078%,30.196078%,30.196078%);fill-opacity:1;">
  <use xlink:href="#glyph1-5" x="237.324219" y="328.374023"/>
</g>
<g style="fill:rgb(0%,0%,0%);fill-opacity:1;">
  <use xlink:href="#glyph2-1" x="141.140625" y="347.695312"/>
  <use xlink:href="#glyph2-2" x="152.140625" y="347.695312"/>
  <use xlink:href="#glyph2-3" x="161.140625" y="347.695312"/>
  <use xlink:href="#glyph2-4" x="170.140625" y="347.695312"/>
  <use xlink:href="#glyph2-5" x="174.140625" y="347.695312"/>
  <use xlink:href="#glyph2-6" x="183.140625" y="347.695312"/>
  <use xlink:href="#glyph2-7" x="192.140625" y="347.695312"/>
  <use xlink:href="#glyph2-5" x="197.140625" y="347.695312"/>
  <use xlink:href="#glyph2-8" x="206.140625" y="347.695312"/>
  <use xlink:href="#glyph2-3" x="215.140625" y="347.695312"/>
</g>
<g style="fill:rgb(0%,0%,0%);fill-opacity:1;">
  <use xlink:href="#glyph3-1" x="19.632813" y="201.421875"/>
  <use xlink:href="#glyph3-2" x="19.632813" y="192.421875"/>
  <use xlink:href="#glyph3-3" x="19.632813" y="183.421875"/>
  <use xlink:href="#glyph3-4" x="19.632813" y="174.421875"/>
  <use xlink:href="#glyph3-5" x="19.632813" y="165.421875"/>
  <use xlink:href="#glyph3-6" x="19.632813" y="161.421875"/>
  <use xlink:href="#glyph3-7" x="19.632813" y="152.421875"/>
  <use xlink:href="#glyph3-8" x="19.632813" y="148.421875"/>
  <use xlink:href="#glyph3-9" x="19.632813" y="144.421875"/>
  <use xlink:href="#glyph3-9" x="19.632813" y="131.421875"/>
</g>
<path style=" stroke:none;fill-rule:nonzero;fill:rgb(100%,100%,100%);fill-opacity:1;" d="M 332.089844 151.949219 L 424.03125 151.949219 L 424.03125 77.480469 L 332.089844 77.480469 Z M 332.089844 151.949219 "/>
<g style="fill:rgb(0%,0%,0%);fill-opacity:1;">
  <use xlink:href="#glyph2-9" x="340.058594" y="99.113281"/>
  <use xlink:href="#glyph2-5" x="350.058594" y="99.113281"/>
  <use xlink:href="#glyph2-3" x="359.058594" y="99.113281"/>
  <use xlink:href="#glyph2-8" x="368.058594" y="99.113281"/>
  <use xlink:href="#glyph2-4" x="377.058594" y="99.113281"/>
  <use xlink:href="#glyph2-2" x="381.058594" y="99.113281"/>
  <use xlink:href="#glyph2-10" x="390.058594" y="99.113281"/>
  <use xlink:href="#glyph2-11" x="394.058594" y="99.113281"/>
  <use xlink:href="#glyph2-5" x="398.058594" y="99.113281"/>
  <use xlink:href="#glyph2-12" x="407.058594" y="99.113281"/>
</g>
<path style=" stroke:none;fill-rule:nonzero;fill:rgb(100%,100%,100%);fill-opacity:1;" d="M 340.058594 126.699219 L 357.339844 126.699219 L 357.339844 109.417969 L 340.058594 109.417969 Z M 340.058594 126.699219 "/>
<path style="fill:none;stroke-width:1.551969;stroke-linecap:butt;stroke-linejoin:miter;stroke:rgb(26.666667%,46.666667%,66.666667%);stroke-opacity:1;stroke-miterlimit:10;" d="M 348.699219 124.972656 L 348.699219 122.378906 "/>
<path style="fill:none;stroke-width:1.551969;stroke-linecap:butt;stroke-linejoin:miter;stroke:rgb(26.666667%,46.666667%,66.666667%);stroke-opacity:1;stroke-miterlimit:10;" d="M 348.699219 113.742188 L 348.699219 111.148438 "/>
<path style="fill-rule:nonzero;fill:rgb(100%,100%,100%);fill-opacity:1;stroke-width:1.551969;stroke-linecap:butt;stroke-linejoin:miter;stroke:rgb(26.666667%,46.666667%,66.666667%);stroke-opacity:1;stroke-miterlimit:10;" d="M 342.21875 122.378906 L 355.179688 122.378906 L 355.179688 113.738281 L 342.21875 113.738281 Z M 342.21875 122.378906 "/>
<path style="fill:none;stroke-width:1.551969;stroke-linecap:butt;stroke-linejoin:miter;stroke:rgb(26.666667%,46.666667%,66.666667%);stroke-opacity:1;stroke-miterlimit:10;" d="M 342.21875 118.0625 L 355.179688 118.0625 "/>
<path style="fill:none;stroke-width:1.551969;stroke-linecap:butt;stroke-linejoin:miter;stroke:rgb(26.666667%,46.666667%,66.666667%);stroke-opacity:1;stroke-miterlimit:10;" d="M 348.699219 124.972656 L 348.699219 124.972656 "/>
<path style="fill:none;stroke-width:1.551969;stroke-linecap:butt;stroke-linejoin:miter;stroke:rgb(26.666667%,46.666667%,66.666667%);stroke-opacity:1;stroke-miterlimit:10;" d="M 348.699219 111.148438 L 348.699219 111.148438 "/>
<path style="fill-rule:nonzero;fill:rgb(26.666667%,46.666667%,66.666667%);fill-opacity:1;stroke-width:1.03078;stroke-linecap:round;stroke-linejoin:round;stroke:rgb(26.666667%,46.666667%,66.666667%);stroke-opacity:1;stroke-miterlimit:10;" d="M 351.542969 118.0625 C 351.542969 121.851562 345.855469 121.851562 345.855469 118.0625 C 345.855469 114.269531 351.542969 114.269531 351.542969 118.0625 "/>
<path style=" stroke:none;fill-rule:nonzero;fill:rgb(100%,100%,100%);fill-opacity:1;" d="M 340.058594 143.980469 L 357.339844 143.980469 L 357.339844 126.699219 L 340.058594 126.699219 Z M 340.058594 143.980469 "/>
<path style="fill:none;stroke-width:1.551969;stroke-linecap:butt;stroke-linejoin:miter;stroke:rgb(94.117647%,89.411765%,25.882353%);stroke-opacity:1;stroke-miterlimit:10;" d="M 348.699219 142.253906 L 348.699219 139.660156 "/>
<path style="fill:none;stroke-width:1.551969;stroke-linecap:butt;stroke-linejoin:miter;stroke:rgb(94.117647%,89.411765%,25.882353%);stroke-opacity:1;stroke-miterlimit:10;" d="M 348.699219 131.019531 L 348.699219 128.429688 "/>
<path style="fill-rule:nonzero;fill:rgb(100%,100%,100%);fill-opacity:1;stroke-width:1.551969;stroke-linecap:butt;stroke-linejoin:miter;stroke:rgb(94.117647%,89.411765%,25.882353%);stroke-opacity:1;stroke-miterlimit:10;" d="M 342.21875 139.660156 L 355.179688 139.660156 L 355.179688 131.019531 L 342.21875 131.019531 Z M 342.21875 139.660156 "/>
<path style="fill:none;stroke-width:1.551969;stroke-linecap:butt;stroke-linejoin:miter;stroke:rgb(94.117647%,89.411765%,25.882353%);stroke-opacity:1;stroke-miterlimit:10;" d="M 342.21875 135.339844 L 355.179688 135.339844 "/>
<path style="fill:none;stroke-width:1.551969;stroke-linecap:butt;stroke-linejoin:miter;stroke:rgb(94.117647%,89.411765%,25.882353%);stroke-opacity:1;stroke-miterlimit:10;" d="M 348.699219 142.253906 L 348.699219 142.253906 "/>
<path style="fill:none;stroke-width:1.551969;stroke-linecap:butt;stroke-linejoin:miter;stroke:rgb(94.117647%,89.411765%,25.882353%);stroke-opacity:1;stroke-miterlimit:10;" d="M 348.699219 128.429688 L 348.699219 128.429688 "/>
<path style="fill-rule:nonzero;fill:rgb(94.117647%,89.411765%,25.882353%);fill-opacity:1;stroke-width:1.03078;stroke-linecap:round;stroke-linejoin:round;stroke:rgb(94.117647%,89.411765%,25.882353%);stroke-opacity:1;stroke-miterlimit:10;" d="M 351.542969 135.339844 C 351.542969 139.132812 345.855469 139.132812 345.855469 135.339844 C 345.855469 131.550781 351.542969 131.550781 351.542969 135.339844 "/>
<g style="fill:rgb(0%,0%,0%);fill-opacity:1;">
  <use xlink:href="#glyph1-4" x="365.308594" y="122.393555"/>
</g>
<g style="fill:rgb(0%,0%,0%);fill-opacity:1;">
  <use xlink:href="#glyph1-5" x="365.308594" y="139.670898"/>
</g>
<path style=" stroke:none;fill-rule:nonzero;fill:rgb(100%,100%,100%);fill-opacity:1;" d="M 332.089844 242.363281 L 411.28125 242.363281 L 411.28125 167.894531 L 332.089844 167.894531 Z M 332.089844 242.363281 "/>
<g style="fill:rgb(0%,0%,0%);fill-opacity:1;">
  <use xlink:href="#glyph2-13" x="340.058594" y="189.523438"/>
  <use xlink:href="#glyph2-14" x="351.058594" y="189.523438"/>
  <use xlink:href="#glyph2-15" x="359.058594" y="189.523438"/>
</g>
<path style=" stroke:none;fill-rule:nonzero;fill:rgb(100%,100%,100%);fill-opacity:1;" d="M 340.058594 217.109375 L 357.339844 217.109375 L 357.339844 199.828125 L 340.058594 199.828125 Z M 340.058594 217.109375 "/>
<path style="fill:none;stroke-width:1.551969;stroke-linecap:butt;stroke-linejoin:miter;stroke:rgb(20%,20%,20%);stroke-opacity:1;stroke-miterlimit:10;" d="M 348.699219 215.382812 L 348.699219 212.792969 "/>
<path style="fill:none;stroke-width:1.551969;stroke-linecap:butt;stroke-linejoin:miter;stroke:rgb(20%,20%,20%);stroke-opacity:1;stroke-miterlimit:10;" d="M 348.699219 204.152344 L 348.699219 201.558594 "/>
<path style="fill-rule:nonzero;fill:rgb(100%,100%,100%);fill-opacity:1;stroke-width:1.551969;stroke-linecap:butt;stroke-linejoin:miter;stroke:rgb(20%,20%,20%);stroke-opacity:1;stroke-miterlimit:10;" d="M 342.21875 212.792969 L 355.179688 212.792969 L 355.179688 204.152344 L 342.21875 204.152344 Z M 342.21875 212.792969 "/>
<path style="fill:none;stroke-width:1.551969;stroke-linecap:butt;stroke-linejoin:miter;stroke:rgb(20%,20%,20%);stroke-opacity:1;stroke-miterlimit:10;" d="M 342.21875 208.472656 L 355.179688 208.472656 "/>
<path style="fill:none;stroke-width:1.551969;stroke-linecap:butt;stroke-linejoin:miter;stroke:rgb(20%,20%,20%);stroke-opacity:1;stroke-miterlimit:10;" d="M 348.699219 215.382812 L 348.699219 215.382812 "/>
<path style="fill:none;stroke-width:1.551969;stroke-linecap:butt;stroke-linejoin:miter;stroke:rgb(20%,20%,20%);stroke-opacity:1;stroke-miterlimit:10;" d="M 348.699219 201.558594 L 348.699219 201.558594 "/>
<path style=" stroke:none;fill-rule:nonzero;fill:rgb(0%,0%,0%);fill-opacity:1;" d="M 351.542969 208.472656 C 351.542969 212.261719 345.855469 212.261719 345.855469 208.472656 C 345.855469 204.679688 351.542969 204.679688 351.542969 208.472656 "/>
<path style=" stroke:none;fill-rule:nonzero;fill:rgb(100%,100%,100%);fill-opacity:1;" d="M 340.058594 234.390625 L 357.339844 234.390625 L 357.339844 217.109375 L 340.058594 217.109375 Z M 340.058594 234.390625 "/>
<path style="fill:none;stroke-width:1.551969;stroke-linecap:butt;stroke-linejoin:miter;stroke:rgb(20%,20%,20%);stroke-opacity:1;stroke-miterlimit:10;" d="M 348.699219 232.664062 L 348.699219 230.070312 "/>
<path style="fill:none;stroke-width:1.551969;stroke-linecap:butt;stroke-linejoin:miter;stroke:rgb(20%,20%,20%);stroke-opacity:1;stroke-miterlimit:10;" d="M 348.699219 221.429688 L 348.699219 218.839844 "/>
<path style="fill-rule:nonzero;fill:rgb(100%,100%,100%);fill-opacity:1;stroke-width:1.551969;stroke-linecap:butt;stroke-linejoin:miter;stroke:rgb(20%,20%,20%);stroke-opacity:1;stroke-miterlimit:10;" d="M 342.21875 230.070312 L 355.179688 230.070312 L 355.179688 221.429688 L 342.21875 221.429688 Z M 342.21875 230.070312 "/>
<path style="fill:none;stroke-width:1.551969;stroke-linecap:butt;stroke-linejoin:miter;stroke:rgb(20%,20%,20%);stroke-opacity:1;stroke-miterlimit:10;" d="M 342.21875 225.75 L 355.179688 225.75 "/>
<path style="fill:none;stroke-width:1.551969;stroke-linecap:butt;stroke-linejoin:miter;stroke:rgb(20%,20%,20%);stroke-opacity:1;stroke-miterlimit:10;" d="M 348.699219 232.664062 L 348.699219 232.664062 "/>
<path style="fill:none;stroke-width:1.551969;stroke-linecap:butt;stroke-linejoin:miter;stroke:rgb(20%,20%,20%);stroke-opacity:1;stroke-miterlimit:10;" d="M 348.699219 218.839844 L 348.699219 218.839844 "/>
<path style=" stroke:none;fill-rule:nonzero;fill:rgb(0%,0%,0%);fill-opacity:1;" d="M 348.699219 221.328125 L 352.527344 227.960938 L 344.871094 227.960938 Z M 348.699219 221.328125 "/>
<g style="fill:rgb(0%,0%,0%);fill-opacity:1;">
  <use xlink:href="#glyph1-6" x="365.308594" y="212.803711"/>
  <use xlink:href="#glyph1-7" x="368.308594" y="212.803711"/>
  <use xlink:href="#glyph1-8" x="375.308594" y="212.803711"/>
  <use xlink:href="#glyph1-9" x="386.308594" y="212.803711"/>
  <use xlink:href="#glyph1-10" x="393.308594" y="212.803711"/>
  <use xlink:href="#glyph1-7" x="396.308594" y="212.803711"/>
</g>
<g style="fill:rgb(0%,0%,0%);fill-opacity:1;">
  <use xlink:href="#glyph1-8" x="365.308594" y="230.081055"/>
  <use xlink:href="#glyph1-9" x="376.308594" y="230.081055"/>
  <use xlink:href="#glyph1-10" x="383.308594" y="230.081055"/>
  <use xlink:href="#glyph1-7" x="386.308594" y="230.081055"/>
</g>
</g>
</svg>
