<?xml version="1.0" encoding="UTF-8"?>
<svg xmlns="http://www.w3.org/2000/svg" xmlns:xlink="http://www.w3.org/1999/xlink" width="432pt" height="360pt" viewBox="0 0 432 360" version="1.1">
<defs>
<g>
<symbol overflow="visible" id="glyph0-0">
<path style="stroke:none;" d=""/>
</symbol>
<symbol overflow="visible" id="glyph0-1">
<path style="stroke:none;" d="M 1.765625 -8.046875 L 1.828125 -6.8125 L 0.65625 -7.234375 L 0.4375 -6.578125 L 1.640625 -6.25 L 0.875 -5.265625 L 1.421875 -4.875 L 2.125 -5.90625 L 2.8125 -4.875 L 3.375 -5.265625 L 2.59375 -6.25 L 3.796875 -6.578125 L 3.578125 -7.234375 L 2.40625 -6.8125 L 2.46875 -8.046875 Z M 1.765625 -8.046875 "/>
</symbol>
<symbol overflow="visible" id="glyph1-0">
<path style="stroke:none;" d=""/>
</symbol>
<symbol overflow="visible" id="glyph1-1">
<path style="stroke:none;" d="M 3.515625 -9.25 C 2.671875 -9.25 1.90625 -8.875 1.4375 -8.234375 C 0.84375 -7.421875 0.546875 -6.1875 0.546875 -4.484375 C 0.546875 -1.359375 1.578125 0.296875 3.515625 0.296875 C 5.4375 0.296875 6.484375 -1.359375 6.484375 -4.40625 C 6.484375 -6.1875 6.203125 -7.390625 5.609375 -8.234375 C 5.125 -8.875 4.375 -9.25 3.515625 -9.25 Z M 3.515625 -8.25 C 4.734375 -8.25 5.34375 -7.015625 5.34375 -4.5 C 5.34375 -1.875 4.75 -0.640625 3.5 -0.640625 C 2.296875 -0.640625 1.703125 -1.921875 1.703125 -4.46875 C 1.703125 -7.015625 2.296875 -8.25 3.515625 -8.25 Z M 3.515625 -8.25 "/>
</symbol>
<symbol overflow="visible" id="glyph1-2">
<path style="stroke:none;" d="M 3.3125 -6.59375 L 3.3125 0 L 4.4375 0 L 4.4375 -9.25 L 3.703125 -9.25 C 3.296875 -7.828125 3.046875 -7.640625 1.3125 -7.40625 L 1.3125 -6.59375 Z M 3.3125 -6.59375 "/>
</symbol>
<symbol overflow="visible" id="glyph1-3">
<path style="stroke:none;" d="M 6.46875 -1.109375 L 1.703125 -1.109375 C 1.8125 -1.875 2.234375 -2.375 3.34375 -3.046875 L 4.625 -3.765625 C 5.890625 -4.46875 6.546875 -5.40625 6.546875 -6.546875 C 6.546875 -7.3125 6.234375 -8.03125 5.6875 -8.53125 C 5.15625 -9.015625 4.484375 -9.25 3.640625 -9.25 C 2.484375 -9.25 1.625 -8.84375 1.125 -8.046875 C 0.8125 -7.5625 0.671875 -6.984375 0.640625 -6.046875 L 1.765625 -6.046875 C 1.796875 -6.6875 1.875 -7.046875 2.03125 -7.359375 C 2.328125 -7.921875 2.921875 -8.265625 3.59375 -8.265625 C 4.625 -8.265625 5.390625 -7.53125 5.390625 -6.53125 C 5.390625 -5.78125 4.96875 -5.140625 4.15625 -4.6875 L 2.984375 -4 C 1.09375 -2.90625 0.53125 -2.03125 0.4375 -0.015625 L 6.46875 -0.015625 Z M 6.46875 -1.109375 "/>
</symbol>
<symbol overflow="visible" id="glyph1-4">
<path style="stroke:none;" d="M 7.625 -6.59375 C 7.625 -7.234375 7.59375 -7.40625 7.390625 -7.84375 C 6.875 -8.921875 5.78125 -9.484375 4.203125 -9.484375 C 2.15625 -9.484375 0.890625 -8.4375 0.890625 -6.75 C 0.890625 -5.609375 1.5 -4.890625 2.71875 -4.5625 L 5.046875 -3.953125 C 6.234375 -3.640625 6.75 -3.171875 6.75 -2.4375 C 6.75 -1.9375 6.484375 -1.4375 6.09375 -1.15625 C 5.71875 -0.890625 5.125 -0.75 4.375 -0.75 C 3.359375 -0.75 2.671875 -1 2.234375 -1.53125 C 1.875 -1.9375 1.734375 -2.390625 1.734375 -2.96875 L 0.609375 -2.96875 C 0.625 -2.109375 0.796875 -1.546875 1.171875 -1.03125 C 1.796875 -0.15625 2.875 0.296875 4.296875 0.296875 C 5.40625 0.296875 6.328125 0.03125 6.921875 -0.421875 C 7.546875 -0.921875 7.953125 -1.75 7.953125 -2.5625 C 7.953125 -3.71875 7.234375 -4.5625 5.96875 -4.90625 L 3.625 -5.53125 C 2.5 -5.828125 2.078125 -6.1875 2.078125 -6.90625 C 2.078125 -7.859375 2.921875 -8.484375 4.171875 -8.484375 C 5.65625 -8.484375 6.484375 -7.8125 6.5 -6.59375 Z M 7.625 -6.59375 "/>
</symbol>
<symbol overflow="visible" id="glyph1-5">
<path style="stroke:none;" d="M 9.515625 0 L 11.890625 -9.328125 L 10.5625 -9.328125 L 8.84375 -1.75 L 6.71875 -9.328125 L 5.4375 -9.328125 L 3.359375 -1.75 L 1.609375 -9.328125 L 0.28125 -9.328125 L 2.671875 0 L 3.984375 0 L 6.0625 -7.671875 L 8.21875 0 Z M 9.515625 0 "/>
</symbol>
<symbol overflow="visible" id="glyph1-6">
<path style="stroke:none;" d="M 3.296875 -6.703125 L 2.1875 -6.703125 L 2.1875 -7.75 C 2.1875 -8.203125 2.4375 -8.4375 2.9375 -8.4375 C 3.015625 -8.4375 3.0625 -8.4375 3.296875 -8.421875 L 3.296875 -9.296875 C 3.0625 -9.359375 2.921875 -9.375 2.703125 -9.375 C 1.71875 -9.375 1.125 -8.796875 1.125 -7.84375 L 1.125 -6.703125 L 0.234375 -6.703125 L 0.234375 -5.828125 L 1.125 -5.828125 L 1.125 0 L 2.1875 0 L 2.1875 -5.828125 L 3.296875 -5.828125 Z M 3.296875 -6.703125 "/>
</symbol>
<symbol overflow="visible" id="glyph1-7">
<path style="stroke:none;" d="M 6.5625 -3 C 6.5625 -4.015625 6.484375 -4.625 6.296875 -5.125 C 5.859375 -6.234375 4.84375 -6.890625 3.578125 -6.890625 C 1.71875 -6.890625 0.515625 -5.484375 0.515625 -3.265625 C 0.515625 -1.046875 1.65625 0.296875 3.5625 0.296875 C 5.09375 0.296875 6.15625 -0.578125 6.421875 -2.03125 L 5.34375 -2.03125 C 5.0625 -1.15625 4.453125 -0.6875 3.59375 -0.6875 C 2.921875 -0.6875 2.34375 -1 1.984375 -1.5625 C 1.734375 -1.9375 1.640625 -2.328125 1.625 -3 Z M 1.65625 -3.859375 C 1.734375 -5.109375 2.5 -5.90625 3.578125 -5.90625 C 4.65625 -5.90625 5.40625 -5.0625 5.40625 -3.859375 Z M 1.65625 -3.859375 "/>
</symbol>
<symbol overflow="visible" id="glyph1-8">
<path style="stroke:none;" d="M 0.890625 -6.703125 L 0.890625 0 L 1.96875 0 L 1.96875 -4.203125 C 1.96875 -5.1875 2.671875 -5.96875 3.546875 -5.96875 C 4.34375 -5.96875 4.78125 -5.484375 4.78125 -4.625 L 4.78125 0 L 5.859375 0 L 5.859375 -4.203125 C 5.859375 -5.1875 6.5625 -5.96875 7.4375 -5.96875 C 8.21875 -5.96875 8.671875 -5.46875 8.671875 -4.625 L 8.671875 0 L 9.75 0 L 9.75 -5.03125 C 9.75 -6.234375 9.0625 -6.890625 7.8125 -6.890625 C 6.90625 -6.890625 6.375 -6.625 5.75 -5.875 C 5.34375 -6.59375 4.8125 -6.890625 3.9375 -6.890625 C 3.046875 -6.890625 2.4375 -6.5625 1.875 -5.765625 L 1.875 -6.703125 Z M 0.890625 -6.703125 "/>
</symbol>
<symbol overflow="visible" id="glyph1-9">
<path style="stroke:none;" d="M 6.84375 -0.625 C 6.734375 -0.59375 6.6875 -0.59375 6.609375 -0.59375 C 6.25 -0.59375 6.046875 -0.796875 6.046875 -1.125 L 6.046875 -5.0625 C 6.046875 -6.25 5.171875 -6.890625 3.515625 -6.890625 C 2.53125 -6.890625 1.75 -6.609375 1.296875 -6.109375 C 0.984375 -5.765625 0.859375 -5.390625 0.828125 -4.71875 L 1.90625 -4.71875 C 2 -5.546875 2.484375 -5.90625 3.484375 -5.90625 C 4.453125 -5.90625 4.984375 -5.546875 4.984375 -4.90625 L 4.984375 -4.625 C 4.96875 -4.171875 4.734375 -4 3.859375 -3.890625 C 2.359375 -3.703125 2.125 -3.640625 1.71875 -3.484375 C 0.9375 -3.140625 0.53125 -2.5625 0.53125 -1.6875 C 0.53125 -0.46875 1.375 0.296875 2.734375 0.296875 C 3.578125 0.296875 4.265625 0 5.015625 -0.6875 C 5.09375 0 5.421875 0.296875 6.109375 0.296875 C 6.34375 0.296875 6.484375 0.265625 6.84375 0.171875 Z M 4.984375 -2.109375 C 4.984375 -1.75 4.875 -1.53125 4.5625 -1.234375 C 4.125 -0.84375 3.59375 -0.640625 2.96875 -0.640625 C 2.140625 -0.640625 1.65625 -1.03125 1.65625 -1.71875 C 1.65625 -2.421875 2.109375 -2.78125 3.265625 -2.9375 C 4.40625 -3.09375 4.625 -3.140625 4.984375 -3.3125 Z M 4.984375 -2.109375 "/>
</symbol>
<symbol overflow="visible" id="glyph1-10">
<path style="stroke:none;" d="M 1.9375 -9.328125 L 0.875 -9.328125 L 0.875 0 L 1.9375 0 Z M 1.9375 -9.328125 "/>
</symbol>
<symbol overflow="visible" id="glyph2-0">
<path style="stroke:none;" d=""/>
</symbol>
<symbol overflow="visible" id="glyph2-1">
<path style="stroke:none;" d="M 8.8125 -5.3125 L 8.8125 0 L 10.296875 0 L 10.296875 -11.65625 L 8.8125 -11.65625 L 8.8125 -6.625 L 2.8125 -6.625 L 2.8125 -11.65625 L 1.328125 -11.65625 L 1.328125 0 L 2.8125 0 L 2.8125 -5.3125 Z M 8.8125 -5.3125 "/>
</symbol>
<symbol overflow="visible" id="glyph2-2">
<path style="stroke:none;" d="M 8.5625 -0.78125 C 8.421875 -0.75 8.359375 -0.75 8.265625 -0.75 C 7.8125 -0.75 7.546875 -0.984375 7.546875 -1.40625 L 7.546875 -6.34375 C 7.546875 -7.828125 6.46875 -8.625 4.40625 -8.625 C 3.171875 -8.625 2.1875 -8.265625 1.609375 -7.640625 C 1.234375 -7.21875 1.078125 -6.734375 1.046875 -5.90625 L 2.390625 -5.90625 C 2.5 -6.921875 3.109375 -7.390625 4.359375 -7.390625 C 5.5625 -7.390625 6.21875 -6.9375 6.21875 -6.140625 L 6.21875 -5.796875 C 6.203125 -5.21875 5.921875 -5.015625 4.828125 -4.859375 C 2.9375 -4.625 2.65625 -4.5625 2.140625 -4.359375 C 1.171875 -3.9375 0.671875 -3.203125 0.671875 -2.109375 C 0.671875 -0.59375 1.734375 0.375 3.421875 0.375 C 4.484375 0.375 5.328125 0 6.265625 -0.859375 C 6.375 0 6.78125 0.375 7.640625 0.375 C 7.9375 0.375 8.109375 0.34375 8.5625 0.21875 Z M 6.21875 -2.640625 C 6.21875 -2.1875 6.09375 -1.921875 5.703125 -1.546875 C 5.15625 -1.0625 4.5 -0.796875 3.71875 -0.796875 C 2.671875 -0.796875 2.0625 -1.296875 2.0625 -2.140625 C 2.0625 -3.03125 2.640625 -3.46875 4.078125 -3.6875 C 5.5 -3.875 5.78125 -3.9375 6.21875 -4.140625 Z M 6.21875 -2.640625 "/>
</symbol>
<symbol overflow="visible" id="glyph2-3">
<path style="stroke:none;" d="M 0.859375 3.484375 L 2.203125 3.484375 L 2.203125 -0.875 C 2.90625 -0.015625 3.703125 0.375 4.78125 0.375 C 6.953125 0.375 8.375 -1.375 8.375 -4.046875 C 8.375 -6.859375 6.984375 -8.625 4.765625 -8.625 C 3.625 -8.625 2.71875 -8.109375 2.09375 -7.125 L 2.09375 -8.390625 L 0.859375 -8.390625 Z M 4.546875 -7.375 C 6.015625 -7.375 6.96875 -6.078125 6.96875 -4.078125 C 6.96875 -2.171875 6 -0.875 4.546875 -0.875 C 3.125 -0.875 2.203125 -2.15625 2.203125 -4.125 C 2.203125 -6.09375 3.125 -7.375 4.546875 -7.375 Z M 4.546875 -7.375 "/>
</symbol>
<symbol overflow="visible" id="glyph2-4">
<path style="stroke:none;" d="M 2.4375 -11.65625 L 1.09375 -11.65625 L 1.09375 0 L 2.4375 0 Z M 2.4375 -11.65625 "/>
</symbol>
<symbol overflow="visible" id="glyph2-5">
<path style="stroke:none;" d="M 4.359375 -8.625 C 1.984375 -8.625 0.578125 -6.9375 0.578125 -4.125 C 0.578125 -1.296875 1.984375 0.375 4.375 0.375 C 6.734375 0.375 8.15625 -1.3125 8.15625 -4.0625 C 8.15625 -6.96875 6.78125 -8.625 4.359375 -8.625 Z M 4.375 -7.390625 C 5.875 -7.390625 6.765625 -6.15625 6.765625 -4.078125 C 6.765625 -2.09375 5.84375 -0.859375 4.375 -0.859375 C 2.875 -0.859375 1.96875 -2.09375 1.96875 -4.125 C 1.96875 -6.15625 2.875 -7.390625 4.375 -7.390625 Z M 4.375 -7.390625 "/>
</symbol>
<symbol overflow="visible" id="glyph2-6">
<path style="stroke:none;" d="M 6.46875 -8.390625 L 6.46875 -7.171875 C 5.796875 -8.171875 5.0625 -8.625 4 -8.625 C 1.96875 -8.625 0.5625 -6.734375 0.5625 -4.046875 C 0.5625 -2.640625 0.890625 -1.609375 1.609375 -0.765625 C 2.234375 -0.03125 3.046875 0.375 3.90625 0.375 C 4.90625 0.375 5.625 -0.078125 6.34375 -1.140625 L 6.34375 -0.703125 C 6.34375 1.53125 5.71875 2.375 4.046875 2.375 C 2.90625 2.375 2.3125 1.921875 2.1875 0.953125 L 0.828125 0.953125 C 0.953125 2.515625 2.1875 3.484375 4.015625 3.484375 C 5.25 3.484375 6.265625 3.09375 6.8125 2.421875 C 7.453125 1.625 7.703125 0.59375 7.703125 -1.375 L 7.703125 -8.390625 Z M 4.125 -7.390625 C 5.53125 -7.390625 6.34375 -6.203125 6.34375 -4.078125 C 6.34375 -2.046875 5.515625 -0.859375 4.125 -0.859375 C 2.75 -0.859375 1.953125 -2.0625 1.953125 -4.125 C 1.953125 -6.171875 2.75 -7.390625 4.125 -7.390625 Z M 4.125 -7.390625 "/>
</symbol>
<symbol overflow="visible" id="glyph2-7">
<path style="stroke:none;" d="M 1.109375 -8.390625 L 1.109375 0 L 2.453125 0 L 2.453125 -4.359375 C 2.46875 -6.375 3.296875 -7.265625 5.140625 -7.21875 L 5.140625 -8.578125 C 4.90625 -8.609375 4.78125 -8.625 4.625 -8.625 C 3.765625 -8.625 3.109375 -8.109375 2.34375 -6.859375 L 2.34375 -8.390625 Z M 1.109375 -8.390625 "/>
</symbol>
<symbol overflow="visible" id="glyph2-8">
<path style="stroke:none;" d="M 7.71875 0 L 7.71875 -8.390625 L 6.390625 -8.390625 L 6.390625 -3.625 C 6.390625 -1.921875 5.484375 -0.796875 4.09375 -0.796875 C 3.046875 -0.796875 2.375 -1.4375 2.375 -2.453125 L 2.375 -8.390625 L 1.046875 -8.390625 L 1.046875 -1.921875 C 1.046875 -0.53125 2.078125 0.375 3.71875 0.375 C 4.9375 0.375 5.734375 -0.0625 6.515625 -1.171875 L 6.515625 0 Z M 7.71875 0 "/>
</symbol>
<symbol overflow="visible" id="glyph2-9">
<path style="stroke:none;" d="M 2.9375 -4.9375 L 6.609375 -4.9375 C 7.515625 -4.9375 8.234375 -5.21875 8.859375 -5.78125 C 9.5625 -6.421875 9.875 -7.171875 9.875 -8.234375 C 9.875 -10.4375 8.578125 -11.65625 6.265625 -11.65625 L 1.453125 -11.65625 L 1.453125 0 L 2.9375 0 Z M 2.9375 -6.25 L 2.9375 -10.359375 L 6.046875 -10.359375 C 7.46875 -10.359375 8.3125 -9.578125 8.3125 -8.296875 C 8.3125 -7.03125 7.46875 -6.25 6.046875 -6.25 Z M 2.9375 -6.25 "/>
</symbol>
<symbol overflow="visible" id="glyph2-10">
<path style="stroke:none;" d="M 4.0625 -8.390625 L 2.6875 -8.390625 L 2.6875 -10.6875 L 1.359375 -10.6875 L 1.359375 -8.390625 L 0.21875 -8.390625 L 0.21875 -7.296875 L 1.359375 -7.296875 L 1.359375 -0.953125 C 1.359375 -0.09375 1.9375 0.375 2.96875 0.375 C 3.328125 0.375 3.609375 0.34375 4.0625 0.25 L 4.0625 -0.859375 C 3.875 -0.8125 3.703125 -0.796875 3.421875 -0.796875 C 2.84375 -0.796875 2.6875 -0.953125 2.6875 -1.546875 L 2.6875 -7.296875 L 4.0625 -7.296875 Z M 4.0625 -8.390625 "/>
</symbol>
<symbol overflow="visible" id="glyph2-11">
<path style="stroke:none;" d="M 2.40625 -8.390625 L 1.078125 -8.390625 L 1.078125 0 L 2.40625 0 Z M 2.40625 -11.65625 L 1.0625 -11.65625 L 1.0625 -9.984375 L 2.40625 -9.984375 Z M 2.40625 -11.65625 "/>
</symbol>
<symbol overflow="visible" id="glyph2-12">
<path style="stroke:none;" d="M 1.125 -8.390625 L 1.125 0 L 2.46875 0 L 2.46875 -4.625 C 2.46875 -6.34375 3.359375 -7.453125 4.734375 -7.453125 C 5.796875 -7.453125 6.46875 -6.8125 6.46875 -5.8125 L 6.46875 0 L 7.796875 0 L 7.796875 -6.34375 C 7.796875 -7.734375 6.75 -8.625 5.140625 -8.625 C 3.890625 -8.625 3.09375 -8.140625 2.359375 -6.96875 L 2.359375 -8.390625 Z M 1.125 -8.390625 "/>
</symbol>
<symbol overflow="visible" id="glyph2-13">
<path style="stroke:none;" d="M 9.53125 -8.234375 C 9.53125 -9.046875 9.484375 -9.265625 9.234375 -9.8125 C 8.59375 -11.15625 7.234375 -11.859375 5.265625 -11.859375 C 2.703125 -11.859375 1.125 -10.546875 1.125 -8.4375 C 1.125 -7.015625 1.875 -6.109375 3.40625 -5.71875 L 6.296875 -4.9375 C 7.796875 -4.5625 8.453125 -3.96875 8.453125 -3.0625 C 8.453125 -2.4375 8.109375 -1.796875 7.609375 -1.4375 C 7.15625 -1.109375 6.421875 -0.9375 5.46875 -0.9375 C 4.1875 -0.9375 3.34375 -1.25 2.78125 -1.921875 C 2.359375 -2.4375 2.15625 -2.984375 2.171875 -3.71875 L 0.765625 -3.71875 C 0.78125 -2.640625 0.984375 -1.9375 1.453125 -1.296875 C 2.25 -0.1875 3.59375 0.375 5.375 0.375 C 6.765625 0.375 7.90625 0.046875 8.65625 -0.53125 C 9.4375 -1.15625 9.9375 -2.1875 9.9375 -3.203125 C 9.9375 -4.640625 9.046875 -5.703125 7.453125 -6.125 L 4.53125 -6.90625 C 3.125 -7.296875 2.609375 -7.75 2.609375 -8.640625 C 2.609375 -9.828125 3.640625 -10.609375 5.21875 -10.609375 C 7.078125 -10.609375 8.109375 -9.78125 8.125 -8.234375 Z M 9.53125 -8.234375 "/>
</symbol>
<symbol overflow="visible" id="glyph2-14">
<path style="stroke:none;" d="M 8.203125 -3.75 C 8.203125 -5.03125 8.109375 -5.796875 7.875 -6.421875 C 7.328125 -7.796875 6.046875 -8.625 4.484375 -8.625 C 2.140625 -8.625 0.640625 -6.84375 0.640625 -4.078125 C 0.640625 -1.3125 2.078125 0.375 4.453125 0.375 C 6.375 0.375 7.703125 -0.71875 8.03125 -2.546875 L 6.6875 -2.546875 C 6.3125 -1.4375 5.5625 -0.859375 4.5 -0.859375 C 3.640625 -0.859375 2.921875 -1.25 2.484375 -1.953125 C 2.15625 -2.4375 2.046875 -2.90625 2.03125 -3.75 Z M 2.0625 -4.828125 C 2.171875 -6.390625 3.125 -7.390625 4.46875 -7.390625 C 5.828125 -7.390625 6.765625 -6.34375 6.765625 -4.828125 Z M 2.0625 -4.828125 "/>
</symbol>
<symbol overflow="visible" id="glyph2-15">
<path style="stroke:none;" d="M 4.671875 -4.34375 L 7.484375 -8.390625 L 5.984375 -8.390625 L 3.96875 -5.34375 L 1.953125 -8.390625 L 0.4375 -8.390625 L 3.234375 -4.265625 L 0.265625 0 L 1.796875 0 L 3.921875 -3.21875 L 6.015625 0 L 7.5625 0 Z M 4.671875 -4.34375 "/>
</symbol>
<symbol overflow="visible" id="glyph3-0">
<path style="stroke:none;" d=""/>
</symbol>
<symbol overflow="visible" id="glyph3-1">
<path style="stroke:none;" d="M -11.65625 -2.765625 L -11.65625 -1.28125 L 0 -1.28125 L 0 -8.53125 L -1.3125 -8.53125 L -1.3125 -2.765625 Z M -11.65625 -2.765625 "/>
</symbol>
<symbol overflow="visible" id="glyph3-2">
<path style="stroke:none;" d="M -3.75 -8.203125 C -5.03125 -8.203125 -5.796875 -8.109375 -6.421875 -7.875 C -7.796875 -7.328125 -8.625 -6.046875 -8.625 -4.484375 C -8.625 -2.140625 -6.84375 -0.640625 -4.078125 -0.640625 C -1.3125 -0.640625 0.375 -2.078125 0.375 -4.453125 C 0.375 -6.375 -0.71875 -7.703125 -2.546875 -8.03125 L -2.546875 -6.6875 C -1.4375 -6.3125 -0.859375 -5.5625 -0.859375 -4.5 C -0.859375 -3.640625 -1.25 -2.921875 -1.953125 -2.484375 C -2.4375 -2.15625 -2.90625 -2.046875 -3.75 -2.03125 Z M -4.828125 -2.0625 C -6.390625 -2.171875 -7.390625 -3.125 -7.390625 -4.46875 C -7.390625 -5.828125 -6.34375 -6.765625 -4.828125 -6.765625 Z M -4.828125 -2.0625 "/>
</symbol>
<symbol overflow="visible" id="glyph3-3">
<path style="stroke:none;" d="M -8.390625 -1.125 L 0 -1.125 L 0 -2.46875 L -4.625 -2.46875 C -6.34375 -2.46875 -7.453125 -3.359375 -7.453125 -4.734375 C -7.453125 -5.796875 -6.8125 -6.46875 -5.8125 -6.46875 L 0 -6.46875 L 0 -7.796875 L -6.34375 -7.796875 C -7.734375 -7.796875 -8.625 -6.75 -8.625 -5.140625 C -8.625 -3.890625 -8.140625 -3.09375 -6.96875 -2.359375 L -8.390625 -2.359375 Z M -8.390625 -1.125 "/>
</symbol>
<symbol overflow="visible" id="glyph3-4">
<path style="stroke:none;" d="M -8.390625 -6.46875 L -7.171875 -6.46875 C -8.171875 -5.796875 -8.625 -5.0625 -8.625 -4 C -8.625 -1.96875 -6.734375 -0.5625 -4.046875 -0.5625 C -2.640625 -0.5625 -1.609375 -0.890625 -0.765625 -1.609375 C -0.03125 -2.234375 0.375 -3.046875 0.375 -3.90625 C 0.375 -4.90625 -0.078125 -5.625 -1.140625 -6.34375 L -0.703125 -6.34375 C 1.53125 -6.34375 2.375 -5.71875 2.375 -4.046875 C 2.375 -2.90625 1.921875 -2.3125 0.953125 -2.1875 L 0.953125 -0.828125 C 2.515625 -0.953125 3.484375 -2.1875 3.484375 -4.015625 C 3.484375 -5.25 3.09375 -6.265625 2.421875 -6.8125 C 1.625 -7.453125 0.59375 -7.703125 -1.375 -7.703125 L -8.390625 -7.703125 Z M -7.390625 -4.125 C -7.390625 -5.53125 -6.203125 -6.34375 -4.078125 -6.34375 C -2.046875 -6.34375 -0.859375 -5.515625 -0.859375 -4.125 C -0.859375 -2.75 -2.0625 -1.953125 -4.125 -1.953125 C -6.171875 -1.953125 -7.390625 -2.75 -7.390625 -4.125 Z M -7.390625 -4.125 "/>
</symbol>
<symbol overflow="visible" id="glyph3-5">
<path style="stroke:none;" d="M -8.390625 -4.0625 L -8.390625 -2.6875 L -10.6875 -2.6875 L -10.6875 -1.359375 L -8.390625 -1.359375 L -8.390625 -0.21875 L -7.296875 -0.21875 L -7.296875 -1.359375 L -0.953125 -1.359375 C -0.09375 -1.359375 0.375 -1.9375 0.375 -2.96875 C 0.375 -3.328125 0.34375 -3.609375 0.25 -4.0625 L -0.859375 -4.0625 C -0.8125 -3.875 -0.796875 -3.703125 -0.796875 -3.421875 C -0.796875 -2.84375 -0.953125 -2.6875 -1.546875 -2.6875 L -7.296875 -2.6875 L -7.296875 -4.0625 Z M -8.390625 -4.0625 "/>
</symbol>
<symbol overflow="visible" id="glyph3-6">
<path style="stroke:none;" d="M -11.65625 -1.125 L 0 -1.125 L 0 -2.453125 L -4.625 -2.453125 C -6.34375 -2.453125 -7.453125 -3.34375 -7.453125 -4.71875 C -7.453125 -5.171875 -7.328125 -5.578125 -7.09375 -5.90625 C -6.796875 -6.28125 -6.40625 -6.453125 -5.8125 -6.453125 L 0 -6.453125 L 0 -7.78125 L -6.34375 -7.78125 C -7.75 -7.78125 -8.625 -6.765625 -8.625 -5.140625 C -8.625 -3.953125 -8.25 -3.234375 -7.234375 -2.453125 L -11.65625 -2.453125 Z M -11.65625 -1.125 "/>
</symbol>
<symbol overflow="visible" id="glyph3-7">
<path style="stroke:none;" d="M -1.65625 -1.390625 L 0 -1.390625 L 0 -2.359375 L 0.28125 -2.359375 C 1.390625 -2.359375 1.71875 -2.140625 1.75 -1.390625 L 2.359375 -1.390625 C 2.390625 -2.453125 1.609375 -3.078125 0.25 -3.078125 L -1.65625 -3.078125 Z M -1.65625 -1.390625 "/>
</symbol>
<symbol overflow="visible" id="glyph3-8">
<path style="stroke:none;" d=""/>
</symbol>
<symbol overflow="visible" id="glyph3-9">
<path style="stroke:none;" d="M -8.390625 -1.125 L 0 -1.125 L 0 -2.46875 L -5.265625 -2.46875 C -6.484375 -2.46875 -7.453125 -3.34375 -7.453125 -4.4375 C -7.453125 -5.421875 -6.84375 -5.984375 -5.78125 -5.984375 L 0 -5.984375 L 0 -7.328125 L -5.265625 -7.328125 C -6.484375 -7.328125 -7.453125 -8.203125 -7.453125 -9.296875 C -7.453125 -10.265625 -6.828125 -10.84375 -5.78125 -10.84375 L 0 -10.84375 L 0 -12.1875 L -6.28125 -12.1875 C -7.796875 -12.1875 -8.625 -11.328125 -8.625 -9.765625 C -8.625 -8.640625 -8.28125 -7.96875 -7.34375 -7.1875 C -8.234375 -6.6875 -8.625 -6.015625 -8.625 -4.921875 C -8.625 -3.8125 -8.203125 -3.0625 -7.203125 -2.359375 L -8.390625 -2.359375 Z M -8.390625 -1.125 "/>
</symbol>
</g>
<clipPath id="clip1">
  <path d="M 49.128906 7.96875 L 316.148438 7.96875 L 316.148438 311.871094 L 49.128906 311.871094 Z M 49.128906 7.96875 "/>
</clipPath>
<clipPath id="clip2">
  <path d="M 49.128906 256 L 316.148438 256 L 316.148438 258 L 49.128906 258 Z M 49.128906 256 "/>
</clipPath>
<clipPath id="clip3">
  <path d="M 49.128906 145 L 316.148438 145 L 316.148438 147 L 49.128906 147 Z M 49.128906 145 "/>
</clipPath>
<clipPath id="clip4">
  <path d="M 49.128906 35 L 316.148438 35 L 316.148438 36 L 49.128906 36 Z M 49.128906 35 "/>
</clipPath>
<clipPath id="clip5">
  <path d="M 49.128906 311 L 316.148438 311 L 316.148438 311.871094 L 49.128906 311.871094 Z M 49.128906 311 "/>
</clipPath>
<clipPath id="clip6">
  <path d="M 49.128906 200 L 316.148438 200 L 316.148438 203 L 49.128906 203 Z M 49.128906 200 "/>
</clipPath>
<clipPath id="clip7">
  <path d="M 49.128906 90 L 316.148438 90 L 316.148438 92 L 49.128906 92 Z M 49.128906 90 "/>
</clipPath>
<clipPath id="clip8">
  <path d="M 121 7.96875 L 123 7.96875 L 123 311.871094 L 121 311.871094 Z M 121 7.96875 "/>
</clipPath>
<clipPath id="clip9">
  <path d="M 242 7.96875 L 245 7.96875 L 245 311.871094 L 242 311.871094 Z M 242 7.96875 "/>
</clipPath>
<clipPath id="clip10">
  <path d="M 49.128906 7.96875 L 316.148438 7.96875 L 316.148438 311.871094 L 49.128906 311.871094 Z M 49.128906 7.96875 "/>
</clipPath>
</defs>
<g id="surface3510">
<rect x="0" y="0" width="432" height="360" style="fill:rgb(100%,100%,100%);fill-opacity:1;stroke:none;"/>
<rect x="0" y="0" width="432" height="360" style="fill:rgb(100%,100%,100%);fill-opacity:1;stroke:none;"/>
<path style="fill:none;stroke-width:1.551969;stroke-linecap:round;stroke-linejoin:round;stroke:rgb(100%,100%,100%);stroke-opacity:1;stroke-miterlimit:10;" d="M 0 360 L 432 360 L 432 0 L 0 0 Z M 0 360 "/>
<g clip-path="url(#clip1)" clip-rule="nonzero">
<path style=" stroke:none;fill-rule:nonzero;fill:rgb(100%,100%,100%);fill-opacity:1;" d="M 49.128906 311.871094 L 316.148438 311.871094 L 316.148438 7.96875 L 49.128906 7.96875 Z M 49.128906 311.871094 "/>
</g>
<g clip-path="url(#clip2)" clip-rule="nonzero">
<path style="fill:none;stroke-width:0.775984;stroke-linecap:butt;stroke-linejoin:round;stroke:rgb(92.156863%,92.156863%,92.156863%);stroke-opacity:1;stroke-miterlimit:10;" d="M 49.128906 256.617188 L 316.148438 256.617188 "/>
</g>
<g clip-path="url(#clip3)" clip-rule="nonzero">
<path style="fill:none;stroke-width:0.775984;stroke-linecap:butt;stroke-linejoin:round;stroke:rgb(92.156863%,92.156863%,92.156863%);stroke-opacity:1;stroke-miterlimit:10;" d="M 49.128906 146.105469 L 316.148438 146.105469 "/>
</g>
<g clip-path="url(#clip4)" clip-rule="nonzero">
<path style="fill:none;stroke-width:0.775984;stroke-linecap:butt;stroke-linejoin:round;stroke:rgb(92.156863%,92.156863%,92.156863%);stroke-opacity:1;stroke-miterlimit:10;" d="M 49.128906 35.597656 L 316.148438 35.597656 "/>
</g>
<g clip-path="url(#clip5)" clip-rule="nonzero">
<path style="fill:none;stroke-width:1.551969;stroke-linecap:butt;stroke-linejoin:round;stroke:rgb(92.156863%,92.156863%,92.156863%);stroke-opacity:1;stroke-miterlimit:10;" d="M 49.128906 311.871094 L 316.148438 311.871094 "/>
</g>
<g clip-path="url(#clip6)" clip-rule="nonzero">
<path style="fill:none;stroke-width:1.551969;stroke-linecap:butt;stroke-linejoin:round;stroke:rgb(92.156863%,92.156863%,92.156863%);stroke-opacity:1;stroke-miterlimit:10;" d="M 49.128906 201.363281 L 316.148438 201.363281 "/>
</g>
<g clip-path="url(#clip7)" clip-rule="nonzero">
<path style="fill:none;stroke-width:1.551969;stroke-linecap:butt;stroke-linejoin:round;stroke:rgb(92.156863%,92.156863%,92.156863%);stroke-opacity:1;stroke-miterlimit:10;" d="M 49.128906 90.851562 L 316.148438 90.851562 "/>
</g>
<g clip-path="url(#clip8)" clip-rule="nonzero">
<path style="fill:none;stroke-width:1.551969;stroke-linecap:butt;stroke-linejoin:round;stroke:rgb(92.156863%,92.156863%,92.156863%);stroke-opacity:1;stroke-miterlimit:10;" d="M 121.953125 311.871094 L 121.953125 7.96875 "/>
</g>
<g clip-path="url(#clip9)" clip-rule="nonzero">
<path style="fill:none;stroke-width:1.551969;stroke-linecap:butt;stroke-linejoin:round;stroke:rgb(92.156863%,92.156863%,92.156863%);stroke-opacity:1;stroke-miterlimit:10;" d="M 243.324219 311.871094 L 243.324219 7.96875 "/>
</g>
<path style="fill:none;stroke-width:1.551969;stroke-linecap:butt;stroke-linejoin:round;stroke:rgb(26.666667%,46.666667%,66.666667%);stroke-opacity:1;stroke-miterlimit:10;" d="M 99.195312 108.347656 L 99.195312 94.71875 "/>
<path style="fill:none;stroke-width:1.551969;stroke-linecap:butt;stroke-linejoin:round;stroke:rgb(26.666667%,46.666667%,66.666667%);stroke-opacity:1;stroke-miterlimit:10;" d="M 99.195312 127.9375 L 99.195312 147.644531 "/>
<path style="fill-rule:nonzero;fill:rgb(100%,100%,100%);fill-opacity:1;stroke-width:1.551969;stroke-linecap:butt;stroke-linejoin:miter;stroke:rgb(26.666667%,46.666667%,66.666667%);stroke-opacity:1;stroke-miterlimit:10;" d="M 78.714844 108.347656 L 78.714844 127.9375 L 119.675781 127.9375 L 119.675781 108.347656 Z M 78.714844 108.347656 "/>
<path style="fill:none;stroke-width:3.103937;stroke-linecap:butt;stroke-linejoin:miter;stroke:rgb(26.666667%,46.666667%,66.666667%);stroke-opacity:1;stroke-miterlimit:10;" d="M 78.714844 120.46875 L 119.675781 120.46875 "/>
<path style="fill:none;stroke-width:1.551969;stroke-linecap:butt;stroke-linejoin:round;stroke:rgb(26.666667%,46.666667%,66.666667%);stroke-opacity:1;stroke-miterlimit:10;" d="M 144.710938 84.550781 L 144.710938 55.28125 "/>
<path style="fill:none;stroke-width:1.551969;stroke-linecap:butt;stroke-linejoin:round;stroke:rgb(26.666667%,46.666667%,66.666667%);stroke-opacity:1;stroke-miterlimit:10;" d="M 144.710938 123.347656 L 144.710938 170.441406 "/>
<path style="fill-rule:nonzero;fill:rgb(100%,100%,100%);fill-opacity:1;stroke-width:1.551969;stroke-linecap:butt;stroke-linejoin:miter;stroke:rgb(26.666667%,46.666667%,66.666667%);stroke-opacity:1;stroke-miterlimit:10;" d="M 124.226562 84.550781 L 124.226562 123.347656 L 165.191406 123.347656 L 165.191406 84.550781 Z M 124.226562 84.550781 "/>
<path style="fill:none;stroke-width:3.103937;stroke-linecap:butt;stroke-linejoin:miter;stroke:rgb(26.666667%,46.666667%,66.666667%);stroke-opacity:1;stroke-miterlimit:10;" d="M 124.226562 100.496094 L 165.191406 100.496094 "/>
<path style="fill:none;stroke-width:1.551969;stroke-linecap:butt;stroke-linejoin:round;stroke:rgb(94.117647%,89.411765%,25.882353%);stroke-opacity:1;stroke-miterlimit:10;" d="M 220.566406 110.355469 L 220.566406 86.90625 "/>
<path style="fill:none;stroke-width:1.551969;stroke-linecap:butt;stroke-linejoin:round;stroke:rgb(94.117647%,89.411765%,25.882353%);stroke-opacity:1;stroke-miterlimit:10;" d="M 220.566406 140.40625 L 220.566406 155.535156 "/>
<path style="fill-rule:nonzero;fill:rgb(100%,100%,100%);fill-opacity:1;stroke-width:1.551969;stroke-linecap:butt;stroke-linejoin:miter;stroke:rgb(94.117647%,89.411765%,25.882353%);stroke-opacity:1;stroke-miterlimit:10;" d="M 200.085938 110.355469 L 200.085938 140.40625 L 241.050781 140.40625 L 241.050781 110.355469 Z M 200.085938 110.355469 "/>
<path style="fill:none;stroke-width:3.103937;stroke-linecap:butt;stroke-linejoin:miter;stroke:rgb(94.117647%,89.411765%,25.882353%);stroke-opacity:1;stroke-miterlimit:10;" d="M 200.085938 126.503906 L 241.050781 126.503906 "/>
<path style="fill:none;stroke-width:1.551969;stroke-linecap:butt;stroke-linejoin:round;stroke:rgb(94.117647%,89.411765%,25.882353%);stroke-opacity:1;stroke-miterlimit:10;" d="M 266.082031 82.308594 L 266.082031 64.441406 "/>
<path style="fill:none;stroke-width:1.551969;stroke-linecap:butt;stroke-linejoin:round;stroke:rgb(94.117647%,89.411765%,25.882353%);stroke-opacity:1;stroke-miterlimit:10;" d="M 266.082031 111.351562 L 266.082031 123.75 "/>
<path style="fill-rule:nonzero;fill:rgb(100%,100%,100%);fill-opacity:1;stroke-width:1.551969;stroke-linecap:butt;stroke-linejoin:miter;stroke:rgb(94.117647%,89.411765%,25.882353%);stroke-opacity:1;stroke-miterlimit:10;" d="M 245.601562 82.308594 L 245.601562 111.351562 L 286.566406 111.351562 L 286.566406 82.308594 Z M 245.601562 82.308594 "/>
<path style="fill:none;stroke-width:3.103937;stroke-linecap:butt;stroke-linejoin:miter;stroke:rgb(94.117647%,89.411765%,25.882353%);stroke-opacity:1;stroke-miterlimit:10;" d="M 245.601562 92.058594 L 286.566406 92.058594 "/>
<path style=" stroke:none;fill-rule:nonzero;fill:rgb(26.666667%,46.666667%,66.666667%);fill-opacity:1;" d="M 108.988281 112.8125 C 108.988281 116.601562 103.300781 116.601562 103.300781 112.8125 C 103.300781 109.019531 108.988281 109.019531 108.988281 112.8125 "/>
<path style=" stroke:none;fill-rule:nonzero;fill:rgb(26.666667%,46.666667%,66.666667%);fill-opacity:1;" d="M 110.488281 105.539062 C 110.488281 109.332031 104.804688 109.332031 104.804688 105.539062 C 104.804688 101.746094 110.488281 101.746094 110.488281 105.539062 "/>
<path style=" stroke:none;fill-rule:nonzero;fill:rgb(26.666667%,46.666667%,66.666667%);fill-opacity:1;" d="M 103.324219 116.335938 C 103.324219 120.128906 97.640625 120.128906 97.640625 116.335938 C 97.640625 112.542969 103.324219 112.542969 103.324219 116.335938 "/>
<path style=" stroke:none;fill-rule:nonzero;fill:rgb(26.666667%,46.666667%,66.666667%);fill-opacity:1;" d="M 109.480469 124.058594 C 109.480469 127.851562 103.792969 127.851562 103.792969 124.058594 C 103.792969 120.269531 109.480469 120.269531 109.480469 124.058594 "/>
<path style=" stroke:none;fill-rule:nonzero;fill:rgb(26.666667%,46.666667%,66.666667%);fill-opacity:1;" d="M 100.957031 111.441406 C 100.957031 115.230469 95.269531 115.230469 95.269531 111.441406 C 95.269531 107.648438 100.957031 107.648438 100.957031 111.441406 "/>
<path style=" stroke:none;fill-rule:nonzero;fill:rgb(26.666667%,46.666667%,66.666667%);fill-opacity:1;" d="M 93.628906 120.46875 C 93.628906 124.261719 87.941406 124.261719 87.941406 120.46875 C 87.941406 116.679688 93.628906 116.679688 93.628906 120.46875 "/>
<path style=" stroke:none;fill-rule:nonzero;fill:rgb(26.666667%,46.666667%,66.666667%);fill-opacity:1;" d="M 98.300781 127.496094 C 98.300781 131.289062 92.613281 131.289062 92.613281 127.496094 C 92.613281 123.707031 98.300781 123.707031 98.300781 127.496094 "/>
<path style=" stroke:none;fill-rule:nonzero;fill:rgb(26.666667%,46.666667%,66.666667%);fill-opacity:1;" d="M 96.714844 132.207031 C 96.714844 135.996094 91.027344 135.996094 91.027344 132.207031 C 91.027344 128.414062 96.714844 128.414062 96.714844 132.207031 "/>
<path style=" stroke:none;fill-rule:nonzero;fill:rgb(26.666667%,46.666667%,66.666667%);fill-opacity:1;" d="M 102.269531 104.125 C 102.269531 107.914062 96.582031 107.914062 96.582031 104.125 C 96.582031 100.332031 102.269531 100.332031 102.269531 104.125 "/>
<path style=" stroke:none;fill-rule:nonzero;fill:rgb(26.666667%,46.666667%,66.666667%);fill-opacity:1;" d="M 105.832031 127.9375 C 105.832031 131.730469 100.144531 131.730469 100.144531 127.9375 C 100.144531 124.148438 105.832031 124.148438 105.832031 127.9375 "/>
<path style=" stroke:none;fill-rule:nonzero;fill:rgb(26.666667%,46.666667%,66.666667%);fill-opacity:1;" d="M 106.5625 131.253906 C 106.5625 135.046875 100.878906 135.046875 100.878906 131.253906 C 100.878906 127.464844 106.5625 127.464844 106.5625 131.253906 "/>
<path style=" stroke:none;fill-rule:nonzero;fill:rgb(26.666667%,46.666667%,66.666667%);fill-opacity:1;" d="M 102.996094 108.148438 C 102.996094 111.9375 97.3125 111.9375 97.3125 108.148438 C 97.3125 104.355469 102.996094 104.355469 102.996094 108.148438 "/>
<path style=" stroke:none;fill-rule:nonzero;fill:rgb(26.666667%,46.666667%,66.666667%);fill-opacity:1;" d="M 95.777344 124.183594 C 95.777344 127.972656 90.089844 127.972656 90.089844 124.183594 C 90.089844 120.390625 95.777344 120.390625 95.777344 124.183594 "/>
<path style=" stroke:none;fill-rule:nonzero;fill:rgb(26.666667%,46.666667%,66.666667%);fill-opacity:1;" d="M 93.160156 117.453125 C 93.160156 121.242188 87.472656 121.242188 87.472656 117.453125 C 87.472656 113.660156 93.160156 113.660156 93.160156 117.453125 "/>
<path style=" stroke:none;fill-rule:nonzero;fill:rgb(26.666667%,46.666667%,66.666667%);fill-opacity:1;" d="M 94.132812 108.347656 C 94.132812 112.136719 88.445312 112.136719 88.445312 108.347656 C 88.445312 104.554688 94.132812 104.554688 94.132812 108.347656 "/>
<path style=" stroke:none;fill-rule:nonzero;fill:rgb(26.666667%,46.666667%,66.666667%);fill-opacity:1;" d="M 98.773438 122.957031 C 98.773438 126.746094 93.085938 126.746094 93.085938 122.957031 C 93.085938 119.164062 98.773438 119.164062 98.773438 122.957031 "/>
<path style=" stroke:none;fill-rule:nonzero;fill:rgb(26.666667%,46.666667%,66.666667%);fill-opacity:1;" d="M 110.230469 146.539062 C 110.230469 150.328125 104.542969 150.328125 104.542969 146.539062 C 104.542969 142.746094 110.230469 142.746094 110.230469 146.539062 "/>
<path style=" stroke:none;fill-rule:nonzero;fill:rgb(26.666667%,46.666667%,66.666667%);fill-opacity:1;" d="M 103.378906 94.71875 C 103.378906 98.511719 97.691406 98.511719 97.691406 94.71875 C 97.691406 90.929688 103.378906 90.929688 103.378906 94.71875 "/>
<path style=" stroke:none;fill-rule:nonzero;fill:rgb(26.666667%,46.666667%,66.666667%);fill-opacity:1;" d="M 98.324219 98.144531 C 98.324219 101.9375 92.636719 101.9375 92.636719 98.144531 C 92.636719 94.355469 98.324219 94.355469 98.324219 98.144531 "/>
<path style=" stroke:none;fill-rule:nonzero;fill:rgb(26.666667%,46.666667%,66.666667%);fill-opacity:1;" d="M 98.703125 136.195312 C 98.703125 139.984375 93.015625 139.984375 93.015625 136.195312 C 93.015625 132.402344 98.703125 132.402344 98.703125 136.195312 "/>
<path style=" stroke:none;fill-rule:nonzero;fill:rgb(26.666667%,46.666667%,66.666667%);fill-opacity:1;" d="M 109.785156 147.644531 C 109.785156 151.433594 104.097656 151.433594 104.097656 147.644531 C 104.097656 143.851562 109.785156 143.851562 109.785156 147.644531 "/>
<path style=" stroke:none;fill-rule:nonzero;fill:rgb(26.666667%,46.666667%,66.666667%);fill-opacity:1;" d="M 140.019531 99.59375 L 143.847656 106.226562 L 136.191406 106.226562 Z M 140.019531 99.59375 "/>
<path style=" stroke:none;fill-rule:nonzero;fill:rgb(26.666667%,46.666667%,66.666667%);fill-opacity:1;" d="M 141.414062 109.171875 L 145.246094 115.804688 L 137.585938 115.804688 Z M 141.414062 109.171875 "/>
<path style=" stroke:none;fill-rule:nonzero;fill:rgb(26.666667%,46.666667%,66.666667%);fill-opacity:1;" d="M 138.28125 144.140625 L 142.109375 150.769531 L 134.453125 150.769531 Z M 138.28125 144.140625 "/>
<path style=" stroke:none;fill-rule:nonzero;fill:rgb(26.666667%,46.666667%,66.666667%);fill-opacity:1;" d="M 151.929688 50.859375 L 155.757812 57.488281 L 148.101562 57.488281 Z M 151.929688 50.859375 "/>
<path style=" stroke:none;fill-rule:nonzero;fill:rgb(26.666667%,46.666667%,66.666667%);fill-opacity:1;" d="M 152.355469 113.164062 L 156.183594 119.796875 L 148.523438 119.796875 Z M 152.355469 113.164062 "/>
<path style=" stroke:none;fill-rule:nonzero;fill:rgb(26.666667%,46.666667%,66.666667%);fill-opacity:1;" d="M 142.523438 64.96875 L 146.351562 71.601562 L 138.691406 71.601562 Z M 142.523438 64.96875 "/>
<path style=" stroke:none;fill-rule:nonzero;fill:rgb(26.666667%,46.666667%,66.666667%);fill-opacity:1;" d="M 143.46875 63.269531 L 147.300781 69.902344 L 139.640625 69.902344 Z M 143.46875 63.269531 "/>
<path style=" stroke:none;fill-rule:nonzero;fill:rgb(26.666667%,46.666667%,66.666667%);fill-opacity:1;" d="M 143.605469 78.097656 L 147.433594 84.730469 L 139.773438 84.730469 Z M 143.605469 78.097656 "/>
<path style=" stroke:none;fill-rule:nonzero;fill:rgb(26.666667%,46.666667%,66.666667%);fill-opacity:1;" d="M 139.925781 122.765625 L 143.753906 129.398438 L 136.09375 129.398438 Z M 139.925781 122.765625 "/>
<path style=" stroke:none;fill-rule:nonzero;fill:rgb(26.666667%,46.666667%,66.666667%);fill-opacity:1;" d="M 147.195312 101.703125 L 151.027344 108.335938 L 143.367188 108.335938 Z M 147.195312 101.703125 "/>
<path style=" stroke:none;fill-rule:nonzero;fill:rgb(26.666667%,46.666667%,66.666667%);fill-opacity:1;" d="M 144.273438 121.195312 L 148.101562 127.828125 L 140.441406 127.828125 Z M 144.273438 121.195312 "/>
<path style=" stroke:none;fill-rule:nonzero;fill:rgb(26.666667%,46.666667%,66.666667%);fill-opacity:1;" d="M 149.957031 81.765625 L 153.789062 88.398438 L 146.128906 88.398438 Z M 149.957031 81.765625 "/>
<path style=" stroke:none;fill-rule:nonzero;fill:rgb(26.666667%,46.666667%,66.666667%);fill-opacity:1;" d="M 149.964844 166.019531 L 153.796875 172.652344 L 146.136719 172.652344 Z M 149.964844 166.019531 "/>
<path style=" stroke:none;fill-rule:nonzero;fill:rgb(26.666667%,46.666667%,66.666667%);fill-opacity:1;" d="M 152.050781 80.804688 L 155.882812 87.4375 L 148.222656 87.4375 Z M 152.050781 80.804688 "/>
<path style=" stroke:none;fill-rule:nonzero;fill:rgb(26.666667%,46.666667%,66.666667%);fill-opacity:1;" d="M 150.589844 87.921875 L 154.417969 94.554688 L 146.757812 94.554688 Z M 150.589844 87.921875 "/>
<path style=" stroke:none;fill-rule:nonzero;fill:rgb(26.666667%,46.666667%,66.666667%);fill-opacity:1;" d="M 140.539062 122.191406 L 144.371094 128.824219 L 136.710938 128.824219 Z M 140.539062 122.191406 "/>
<path style=" stroke:none;fill-rule:nonzero;fill:rgb(26.666667%,46.666667%,66.666667%);fill-opacity:1;" d="M 152.703125 91.335938 L 156.53125 97.96875 L 148.871094 97.96875 Z M 152.703125 91.335938 "/>
<path style=" stroke:none;fill-rule:nonzero;fill:rgb(26.666667%,46.666667%,66.666667%);fill-opacity:1;" d="M 145.367188 92.554688 L 149.199219 99.183594 L 141.539062 99.183594 Z M 145.367188 92.554688 "/>
<path style=" stroke:none;fill-rule:nonzero;fill:rgb(26.666667%,46.666667%,66.666667%);fill-opacity:1;" d="M 152.839844 73.832031 L 156.667969 80.464844 L 149.011719 80.464844 Z M 152.839844 73.832031 "/>
<path style=" stroke:none;fill-rule:nonzero;fill:rgb(26.666667%,46.666667%,66.666667%);fill-opacity:1;" d="M 142.476562 118.167969 L 146.308594 124.800781 L 138.648438 124.800781 Z M 142.476562 118.167969 "/>
<path style=" stroke:none;fill-rule:nonzero;fill:rgb(94.117647%,89.411765%,25.882353%);fill-opacity:1;" d="M 222.589844 112.921875 C 222.589844 116.710938 216.902344 116.710938 216.902344 112.921875 C 216.902344 109.128906 222.589844 109.128906 222.589844 112.921875 "/>
<path style=" stroke:none;fill-rule:nonzero;fill:rgb(94.117647%,89.411765%,25.882353%);fill-opacity:1;" d="M 223.1875 140.40625 C 223.1875 144.195312 217.5 144.195312 217.5 140.40625 C 217.5 136.613281 223.1875 136.613281 223.1875 140.40625 "/>
<path style=" stroke:none;fill-rule:nonzero;fill:rgb(94.117647%,89.411765%,25.882353%);fill-opacity:1;" d="M 218.960938 99.207031 C 218.960938 102.996094 213.273438 102.996094 213.273438 99.207031 C 213.273438 95.414062 218.960938 95.414062 218.960938 99.207031 "/>
<path style=" stroke:none;fill-rule:nonzero;fill:rgb(94.117647%,89.411765%,25.882353%);fill-opacity:1;" d="M 228.027344 132.335938 C 228.027344 136.128906 222.339844 136.128906 222.339844 132.335938 C 222.339844 128.546875 228.027344 128.546875 228.027344 132.335938 "/>
<path style=" stroke:none;fill-rule:nonzero;fill:rgb(94.117647%,89.411765%,25.882353%);fill-opacity:1;" d="M 227.050781 155.535156 C 227.050781 159.324219 221.367188 159.324219 221.367188 155.535156 C 221.367188 151.742188 227.050781 151.742188 227.050781 155.535156 "/>
<path style=" stroke:none;fill-rule:nonzero;fill:rgb(94.117647%,89.411765%,25.882353%);fill-opacity:1;" d="M 216.277344 126.503906 C 216.277344 130.292969 210.59375 130.292969 210.59375 126.503906 C 210.59375 122.710938 216.277344 122.710938 216.277344 126.503906 "/>
<path style=" stroke:none;fill-rule:nonzero;fill:rgb(94.117647%,89.411765%,25.882353%);fill-opacity:1;" d="M 218.003906 86.90625 C 218.003906 90.699219 212.316406 90.699219 212.316406 86.90625 C 212.316406 83.117188 218.003906 83.117188 218.003906 86.90625 "/>
<path style=" stroke:none;fill-rule:nonzero;fill:rgb(94.117647%,89.411765%,25.882353%);fill-opacity:1;" d="M 222.953125 136.027344 C 222.953125 139.820312 217.265625 139.820312 217.265625 136.027344 C 217.265625 132.238281 222.953125 132.238281 222.953125 136.027344 "/>
<path style=" stroke:none;fill-rule:nonzero;fill:rgb(94.117647%,89.411765%,25.882353%);fill-opacity:1;" d="M 226.46875 113.726562 C 226.46875 117.519531 220.78125 117.519531 220.78125 113.726562 C 220.78125 109.9375 226.46875 109.9375 226.46875 113.726562 "/>
<path style=" stroke:none;fill-rule:nonzero;fill:rgb(94.117647%,89.411765%,25.882353%);fill-opacity:1;" d="M 215.820312 97.550781 C 215.820312 101.339844 210.132812 101.339844 210.132812 97.550781 C 210.132812 93.757812 215.820312 93.757812 215.820312 97.550781 "/>
<path style=" stroke:none;fill-rule:nonzero;fill:rgb(94.117647%,89.411765%,25.882353%);fill-opacity:1;" d="M 218.226562 110.355469 C 218.226562 114.148438 212.539062 114.148438 212.539062 110.355469 C 212.539062 106.566406 218.226562 106.566406 218.226562 110.355469 "/>
<path style=" stroke:none;fill-rule:nonzero;fill:rgb(94.117647%,89.411765%,25.882353%);fill-opacity:1;" d="M 221.832031 154.828125 C 221.832031 158.617188 216.144531 158.617188 216.144531 154.828125 C 216.144531 151.035156 221.832031 151.035156 221.832031 154.828125 "/>
<path style=" stroke:none;fill-rule:nonzero;fill:rgb(94.117647%,89.411765%,25.882353%);fill-opacity:1;" d="M 226.992188 194.675781 C 226.992188 198.46875 221.304688 198.46875 221.304688 194.675781 C 221.304688 190.886719 226.992188 190.886719 226.992188 194.675781 "/>
<path style=" stroke:none;fill-rule:nonzero;fill:rgb(94.117647%,89.411765%,25.882353%);fill-opacity:1;" d="M 269.746094 80.960938 L 273.578125 87.59375 L 265.917969 87.59375 Z M 269.746094 80.960938 "/>
<path style=" stroke:none;fill-rule:nonzero;fill:rgb(94.117647%,89.411765%,25.882353%);fill-opacity:1;" d="M 267.425781 87.117188 L 271.257812 93.75 L 263.597656 93.75 Z M 267.425781 87.117188 "/>
<path style=" stroke:none;fill-rule:nonzero;fill:rgb(94.117647%,89.411765%,25.882353%);fill-opacity:1;" d="M 265.546875 87.636719 L 269.378906 94.269531 L 261.71875 94.269531 Z M 265.546875 87.636719 "/>
<path style=" stroke:none;fill-rule:nonzero;fill:rgb(94.117647%,89.411765%,25.882353%);fill-opacity:1;" d="M 270.222656 102.820312 L 274.050781 109.453125 L 266.394531 109.453125 Z M 270.222656 102.820312 "/>
<path style=" stroke:none;fill-rule:nonzero;fill:rgb(94.117647%,89.411765%,25.882353%);fill-opacity:1;" d="M 273.050781 111.75 L 276.878906 118.382812 L 269.222656 118.382812 Z M 273.050781 111.75 "/>
<path style=" stroke:none;fill-rule:nonzero;fill:rgb(94.117647%,89.411765%,25.882353%);fill-opacity:1;" d="M 266.714844 114.390625 L 270.542969 121.023438 L 262.882812 121.023438 Z M 266.714844 114.390625 "/>
<path style=" stroke:none;fill-rule:nonzero;fill:rgb(94.117647%,89.411765%,25.882353%);fill-opacity:1;" d="M 264.667969 60.019531 L 268.5 66.652344 L 260.839844 66.652344 Z M 264.667969 60.019531 "/>
<path style=" stroke:none;fill-rule:nonzero;fill:rgb(94.117647%,89.411765%,25.882353%);fill-opacity:1;" d="M 266.242188 77.886719 L 270.070312 84.519531 L 262.414062 84.519531 Z M 266.242188 77.886719 "/>
<path style=" stroke:none;fill-rule:nonzero;fill:rgb(94.117647%,89.411765%,25.882353%);fill-opacity:1;" d="M 259.515625 63.863281 L 263.347656 70.496094 L 255.6875 70.496094 Z M 259.515625 63.863281 "/>
<path style=" stroke:none;fill-rule:nonzero;fill:rgb(94.117647%,89.411765%,25.882353%);fill-opacity:1;" d="M 264.507812 66.242188 L 268.335938 72.875 L 260.679688 72.875 Z M 264.507812 66.242188 "/>
<path style=" stroke:none;fill-rule:nonzero;fill:rgb(94.117647%,89.411765%,25.882353%);fill-opacity:1;" d="M 273.085938 93.855469 L 276.914062 100.488281 L 269.257812 100.488281 Z M 273.085938 93.855469 "/>
<path style=" stroke:none;fill-rule:nonzero;fill:rgb(94.117647%,89.411765%,25.882353%);fill-opacity:1;" d="M 272.914062 106.929688 L 276.746094 113.5625 L 269.085938 113.5625 Z M 272.914062 106.929688 "/>
<path style=" stroke:none;fill-rule:nonzero;fill:rgb(94.117647%,89.411765%,25.882353%);fill-opacity:1;" d="M 262.789062 119.328125 L 266.617188 125.960938 L 258.960938 125.960938 Z M 262.789062 119.328125 "/>
<g style="fill:rgb(0%,0%,0%);fill-opacity:1;">
  <use xlink:href="#glyph0-1" x="119.953125" y="60.21582"/>
</g>
<path style="fill:none;stroke-width:0.640187;stroke-linecap:round;stroke-linejoin:round;stroke:rgb(0%,0%,0%);stroke-opacity:1;stroke-miterlimit:10;" d="M 97.675781 59.707031 L 97.675781 59.707031 "/>
<path style="fill:none;stroke-width:0.640187;stroke-linecap:round;stroke-linejoin:round;stroke:rgb(0%,0%,0%);stroke-opacity:1;stroke-miterlimit:10;" d="M 97.675781 59.707031 L 146.226562 59.707031 "/>
<path style="fill:none;stroke-width:0.640187;stroke-linecap:round;stroke-linejoin:round;stroke:rgb(0%,0%,0%);stroke-opacity:1;stroke-miterlimit:10;" d="M 146.226562 59.707031 L 146.226562 59.707031 "/>
<g style="fill:rgb(0%,0%,0%);fill-opacity:1;">
  <use xlink:href="#glyph0-1" x="239.324219" y="51.055664"/>
  <use xlink:href="#glyph0-1" x="243.324219" y="51.055664"/>
</g>
<path style="fill:none;stroke-width:0.640187;stroke-linecap:round;stroke-linejoin:round;stroke:rgb(0%,0%,0%);stroke-opacity:1;stroke-miterlimit:10;" d="M 219.050781 50.546875 L 219.050781 50.546875 "/>
<path style="fill:none;stroke-width:0.640187;stroke-linecap:round;stroke-linejoin:round;stroke:rgb(0%,0%,0%);stroke-opacity:1;stroke-miterlimit:10;" d="M 219.050781 50.546875 L 267.601562 50.546875 "/>
<path style="fill:none;stroke-width:0.640187;stroke-linecap:round;stroke-linejoin:round;stroke:rgb(0%,0%,0%);stroke-opacity:1;stroke-miterlimit:10;" d="M 267.601562 50.546875 L 267.601562 50.546875 "/>
<g clip-path="url(#clip10)" clip-rule="nonzero">
<path style="fill:none;stroke-width:1.551969;stroke-linecap:round;stroke-linejoin:round;stroke:rgb(20%,20%,20%);stroke-opacity:1;stroke-miterlimit:10;" d="M 49.128906 311.871094 L 316.148438 311.871094 L 316.148438 7.96875 L 49.128906 7.96875 Z M 49.128906 311.871094 "/>
</g>
<g style="fill:rgb(30.196078%,30.196078%,30.196078%);fill-opacity:1;">
  <use xlink:href="#glyph1-1" x="34.957031" y="316.202148"/>
</g>
<g style="fill:rgb(30.196078%,30.196078%,30.196078%);fill-opacity:1;">
  <use xlink:href="#glyph1-2" x="27.957031" y="205.694336"/>
  <use xlink:href="#glyph1-1" x="34.957031" y="205.694336"/>
</g>
<g style="fill:rgb(30.196078%,30.196078%,30.196078%);fill-opacity:1;">
  <use xlink:href="#glyph1-3" x="27.957031" y="95.182617"/>
  <use xlink:href="#glyph1-1" x="34.957031" y="95.182617"/>
</g>
<path style="fill:none;stroke-width:1.551969;stroke-linecap:butt;stroke-linejoin:round;stroke:rgb(20%,20%,20%);stroke-opacity:1;stroke-miterlimit:10;" d="M 45.144531 311.871094 L 49.128906 311.871094 "/>
<path style="fill:none;stroke-width:1.551969;stroke-linecap:butt;stroke-linejoin:round;stroke:rgb(20%,20%,20%);stroke-opacity:1;stroke-miterlimit:10;" d="M 45.144531 201.363281 L 49.128906 201.363281 "/>
<path style="fill:none;stroke-width:1.551969;stroke-linecap:butt;stroke-linejoin:round;stroke:rgb(20%,20%,20%);stroke-opacity:1;stroke-miterlimit:10;" d="M 45.144531 90.851562 L 49.128906 90.851562 "/>
<path style="fill:none;stroke-width:1.551969;stroke-linecap:butt;stroke-linejoin:round;stroke:rgb(20%,20%,20%);stroke-opacity:1;stroke-miterlimit:10;" d="M 121.953125 315.855469 L 121.953125 311.871094 "/>
<path style="fill:none;stroke-width:1.551969;stroke-linecap:butt;stroke-linejoin:round;stroke:rgb(20%,20%,20%);stroke-opacity:1;stroke-miterlimit:10;" d="M 243.324219 315.855469 L 243.324219 311.871094 "/>
<g style="fill:rgb(30.196078%,30.196078%,30.196078%);fill-opacity:1;">
  <use xlink:href="#glyph1-4" x="117.453125" y="328.374023"/>
</g>
<g style="fill:rgb(30.196078%,30.196078%,30.196078%);fill-opacity:1;">
  <use xlink:href="#glyph1-5" x="237.324219" y="328.374023"/>
</g>
<g style="fill:rgb(0%,0%,0%);fill-opacity:1;">
  <use xlink:href="#glyph2-1" x="141.140625" y="347.695312"/>
  <use xlink:href="#glyph2-2" x="152.140625" y="347.695312"/>
  <use xlink:href="#glyph2-3" x="161.140625" y="347.695312"/>
  <use xlink:href="#glyph2-4" x="170.140625" y="347.695312"/>
  <use xlink:href="#glyph2-5" x="174.140625" y="347.695312"/>
  <use xlink:href="#glyph2-6" x="183.140625" y="347.695312"/>
  <use xlink:href="#glyph2-7" x="192.140625" y="347.695312"/>
  <use xlink:href="#glyph2-5" x="197.140625" y="347.695312"/>
  <use xlink:href="#glyph2-8" x="206.140625" y="347.695312"/>
  <use xlink:href="#glyph2-3" x="215.140625" y="347.695312"/>
</g>
<g style="fill:rgb(0%,0%,0%);fill-opacity:1;">
  <use xlink:href="#glyph3-1" x="19.632813" y="201.421875"/>
  <use xlink:href="#glyph3-2" x="19.632813" y="192.421875"/>
  <use xlink:href="#glyph3-3" x="19.632813" y="183.421875"/>
  <use xlink:href="#glyph3-4" x="19.632813" y="174.421875"/>
  <use xlink:href="#glyph3-5" x="19.632813" y="165.421875"/>
  <use xlink:href="#glyph3-6" x="19.632813" y="161.421875"/>
  <use xlink:href="#glyph3-7" x="19.632813" y="152.421875"/>
  <use xlink:href="#glyph3-8" x="19.632813" y="148.421875"/>
  <use xlink:href="#glyph3-9" x="19.632813" y="144.421875"/>
  <use xlink:href="#glyph3-9" x="19.632813" y="131.421875"/>
</g>
<path style=" stroke:none;fill-rule:nonzero;fill:rgb(100%,100%,100%);fill-opacity:1;" d="M 332.089844 151.949219 L 424.03125 151.949219 L 424.03125 77.480469 L 332.089844 77.480469 Z M 332.089844 151.949219 "/>
<g style="fill:rgb(0%,0%,0%);fill-opacity:1;">
  <use xlink:href="#glyph2-9" x="340.058594" y="99.113281"/>
  <use xlink:href="#glyph2-5" x="350.058594" y="99.113281"/>
  <use xlink:href="#glyph2-3" x="359.058594" y="99.113281"/>
  <use xlink:href="#glyph2-8" x="368.058594" y="99.113281"/>
  <use xlink:href="#glyph2-4" x="377.058594" y="99.113281"/>
  <use xlink:href="#glyph2-2" x="381.058594" y="99.113281"/>
  <use xlink:href="#glyph2-10" x="390.058594" y="99.113281"/>
  <use xlink:href="#glyph2-11" x="394.058594" y="99.113281"/>
  <use xlink:href="#glyph2-5" x="398.058594" y="99.113281"/>
  <use xlink:href="#glyph2-12" x="407.058594" y="99.113281"/>
</g>
<path style=" stroke:none;fill-rule:nonzero;fill:rgb(100%,100%,100%);fill-opacity:1;" d="M 340.058594 126.699219 L 357.339844 126.699219 L 357.339844 109.417969 L 340.058594 109.417969 Z M 340.058594 126.699219 "/>
<path style="fill:none;stroke-width:1.551969;stroke-linecap:butt;stroke-linejoin:miter;stroke:rgb(26.666667%,46.666667%,66.666667%);stroke-opacity:1;stroke-miterlimit:10;" d="M 348.699219 124.972656 L 348.699219 122.378906 "/>
<path style="fill:none;stroke-width:1.551969;stroke-linecap:butt;stroke-linejoin:miter;stroke:rgb(26.666667%,46.666667%,66.666667%);stroke-opacity:1;stroke-miterlimit:10;" d="M 348.699219 113.742188 L 348.699219 111.148438 "/>
<path style="fill-rule:nonzero;fill:rgb(100%,100%,100%);fill-opacity:1;stroke-width:1.551969;stroke-linecap:butt;stroke-linejoin:miter;stroke:rgb(26.666667%,46.666667%,66.666667%);stroke-opacity:1;stroke-miterlimit:10;" d="M 342.21875 122.378906 L 355.179688 122.378906 L 355.179688 113.738281 L 342.21875 113.738281 Z M 342.21875 122.378906 "/>
<path style="fill:none;stroke-width:1.551969;stroke-linecap:butt;stroke-linejoin:miter;stroke:rgb(26.666667%,46.666667%,66.666667%);stroke-opacity:1;stroke-miterlimit:10;" d="M 342.21875 118.0625 L 355.179688 118.0625 "/>
<path style="fill:none;stroke-width:1.551969;stroke-linecap:butt;stroke-linejoin:miter;stroke:rgb(26.666667%,46.666667%,66.666667%);stroke-opacity:1;stroke-miterlimit:10;" d="M 348.699219 124.972656 L 348.699219 124.972656 "/>
<path style="fill:none;stroke-width:1.551969;stroke-linecap:butt;stroke-linejoin:miter;stroke:rgb(26.666667%,46.666667%,66.666667%);stroke-opacity:1;stroke-miterlimit:10;" d="M 348.699219 111.148438 L 348.699219 111.148438 "/>
<path style="fill-rule:nonzero;fill:rgb(26.666667%,46.666667%,66.666667%);fill-opacity:1;stroke-width:1.03078;stroke-linecap:round;stroke-linejoin:round;stroke:rgb(26.666667%,46.666667%,66.666667%);stroke-opacity:1;stroke-miterlimit:10;" d="M 351.542969 118.0625 C 351.542969 121.851562 345.855469 121.851562 345.855469 118.0625 C 345.855469 114.269531 351.542969 114.269531 351.542969 118.0625 "/>
<path style=" stroke:none;fill-rule:nonzero;fill:rgb(100%,100%,100%);fill-opacity:1;" d="M 340.058594 143.980469 L 357.339844 143.980469 L 357.339844 126.699219 L 340.058594 126.699219 Z M 340.058594 143.980469 "/>
<path style="fill:none;stroke-width:1.551969;stroke-linecap:butt;stroke-linejoin:miter;stroke:rgb(94.117647%,89.411765%,25.882353%);stroke-opacity:1;stroke-miterlimit:10;" d="M 348.699219 142.253906 L 348.699219 139.660156 "/>
<path style="fill:none;stroke-width:1.551969;stroke-linecap:butt;stroke-linejoin:miter;stroke:rgb(94.117647%,89.411765%,25.882353%);stroke-opacity:1;stroke-miterlimit:10;" d="M 348.699219 131.019531 L 348.699219 128.429688 "/>
<path style="fill-rule:nonzero;fill:rgb(100%,100%,100%);fill-opacity:1;stroke-width:1.551969;stroke-linecap:butt;stroke-linejoin:miter;stroke:rgb(94.117647%,89.411765%,25.882353%);stroke-opacity:1;stroke-miterlimit:10;" d="M 342.21875 139.660156 L 355.179688 139.660156 L 355.179688 131.019531 L 342.21875 131.019531 Z M 342.21875 139.660156 "/>
<path style="fill:none;stroke-width:1.551969;stroke-linecap:butt;stroke-linejoin:miter;stroke:rgb(94.117647%,89.411765%,25.882353%);stroke-opacity:1;stroke-miterlimit:10;" d="M 342.21875 135.339844 L 355.179688 135.339844 "/>
<path style="fill:none;stroke-width:1.551969;stroke-linecap:butt;stroke-linejoin:miter;stroke:rgb(94.117647%,89.411765%,25.882353%);stroke-opacity:1;stroke-miterlimit:10;" d="M 348.699219 142.253906 L 348.699219 142.253906 "/>
<path style="fill:none;stroke-width:1.551969;stroke-linecap:butt;stroke-linejoin:miter;stroke:rgb(94.117647%,89.411765%,25.882353%);stroke-opacity:1;stroke-miterlimit:10;" d="M 348.699219 128.429688 L 348.699219 128.429688 "/>
<path style="fill-rule:nonzero;fill:rgb(94.117647%,89.411765%,25.882353%);fill-opacity:1;stroke-width:1.03078;stroke-linecap:round;stroke-linejoin:round;stroke:rgb(94.117647%,89.411765%,25.882353%);stroke-opacity:1;stroke-miterlimit:10;" d="M 351.542969 135.339844 C 351.542969 139.132812 345.855469 139.132812 345.855469 135.339844 C 345.855469 131.550781 351.542969 131.550781 351.542969 135.339844 "/>
<g style="fill:rgb(0%,0%,0%);fill-opacity:1;">
  <use xlink:href="#glyph1-4" x="365.308594" y="122.393555"/>
</g>
<g style="fill:rgb(0%,0%,0%);fill-opacity:1;">
  <use xlink:href="#glyph1-5" x="365.308594" y="139.670898"/>
</g>
<path style=" stroke:none;fill-rule:nonzero;fill:rgb(100%,100%,100%);fill-opacity:1;" d="M 332.089844 242.363281 L 411.28125 242.363281 L 411.28125 167.894531 L 332.089844 167.894531 Z M 332.089844 242.363281 "/>
<g style="fill:rgb(0%,0%,0%);fill-opacity:1;">
  <use xlink:href="#glyph2-13" x="340.058594" y="189.523438"/>
  <use xlink:href="#glyph2-14" x="351.058594" y="189.523438"/>
  <use xlink:href="#glyph2-15" x="359.058594" y="189.523438"/>
</g>
<path style=" stroke:none;fill-rule:nonzero;fill:rgb(100%,100%,100%);fill-opacity:1;" d="M 340.058594 217.109375 L 357.339844 217.109375 L 357.339844 199.828125 L 340.058594 199.828125 Z M 340.058594 217.109375 "/>
<path style="fill:none;stroke-width:1.551969;stroke-linecap:butt;stroke-linejoin:miter;stroke:rgb(20%,20%,20%);stroke-opacity:1;stroke-miterlimit:10;" d="M 348.699219 215.382812 L 348.699219 212.792969 "/>
<path style="fill:none;stroke-width:1.551969;stroke-linecap:butt;stroke-linejoin:miter;stroke:rgb(20%,20%,20%);stroke-opacity:1;stroke-miterlimit:10;" d="M 348.699219 204.152344 L 348.699219 201.558594 "/>
<path style="fill-rule:nonzero;fill:rgb(100%,100%,100%);fill-opacity:1;stroke-width:1.551969;stroke-linecap:butt;stroke-linejoin:miter;stroke:rgb(20%,20%,20%);stroke-opacity:1;stroke-miterlimit:10;" d="M 342.21875 212.792969 L 355.179688 212.792969 L 355.179688 204.152344 L 342.21875 204.152344 Z M 342.21875 212.792969 "/>
<path style="fill:none;stroke-width:1.551969;stroke-linecap:butt;stroke-linejoin:miter;stroke:rgb(20%,20%,20%);stroke-opacity:1;stroke-miterlimit:10;" d="M 342.21875 208.472656 L 355.179688 208.472656 "/>
<path style="fill:none;stroke-width:1.551969;stroke-linecap:butt;stroke-linejoin:miter;stroke:rgb(20%,20%,20%);stroke-opacity:1;stroke-miterlimit:10;" d="M 348.699219 215.382812 L 348.699219 215.382812 "/>
<path style="fill:none;stroke-width:1.551969;stroke-linecap:butt;stroke-linejoin:miter;stroke:rgb(20%,20%,20%);stroke-opacity:1;stroke-miterlimit:10;" d="M 348.699219 201.558594 L 348.699219 201.558594 "/>
<path style=" stroke:none;fill-rule:nonzero;fill:rgb(0%,0%,0%);fill-opacity:1;" d="M 351.542969 208.472656 C 351.542969 212.261719 345.855469 212.261719 345.855469 208.472656 C 345.855469 204.679688 351.542969 204.679688 351.542969 208.472656 "/>
<path style=" stroke:none;fill-rule:nonzero;fill:rgb(100%,100%,100%);fill-opacity:1;" d="M 340.058594 234.390625 L 357.339844 234.390625 L 357.339844 217.109375 L 340.058594 217.109375 Z M 340.058594 234.390625 "/>
<path style="fill:none;stroke-width:1.551969;stroke-linecap:butt;stroke-linejoin:miter;stroke:rgb(20%,20%,20%);stroke-opacity:1;stroke-miterlimit:10;" d="M 348.699219 232.664062 L 348.699219 230.070312 "/>
<path style="fill:none;stroke-width:1.551969;stroke-linecap:butt;stroke-linejoin:miter;stroke:rgb(20%,20%,20%);stroke-opacity:1;stroke-miterlimit:10;" d="M 348.699219 221.429688 L 348.699219 218.839844 "/>
<path style="fill-rule:nonzero;fill:rgb(100%,100%,100%);fill-opacity:1;stroke-width:1.551969;stroke-linecap:butt;stroke-linejoin:miter;stroke:rgb(20%,20%,20%);stroke-opacity:1;stroke-miterlimit:10;" d="M 342.21875 230.070312 L 355.179688 230.070312 L 355.179688 221.429688 L 342.21875 221.429688 Z M 342.21875 230.070312 "/>
<path style="fill:none;stroke-width:1.551969;stroke-linecap:butt;stroke-linejoin:miter;stroke:rgb(20%,20%,20%);stroke-opacity:1;stroke-miterlimit:10;" d="M 342.21875 225.75 L 355.179688 225.75 "/>
<path style="fill:none;stroke-width:1.551969;stroke-linecap:butt;stroke-linejoin:miter;stroke:rgb(20%,20%,20%);stroke-opacity:1;stroke-miterlimit:10;" d="M 348.699219 232.664062 L 348.699219 232.664062 "/>
<path style="fill:none;stroke-width:1.551969;stroke-linecap:butt;stroke-linejoin:miter;stroke:rgb(20%,20%,20%);stroke-opacity:1;stroke-miterlimit:10;" d="M 348.699219 218.839844 L 348.699219 218.839844 "/>
<path style=" stroke:none;fill-rule:nonzero;fill:rgb(0%,0%,0%);fill-opacity:1;" d="M 348.699219 221.328125 L 352.527344 227.960938 L 344.871094 227.960938 Z M 348.699219 221.328125 "/>
<g style="fill:rgb(0%,0%,0%);fill-opacity:1;">
  <use xlink:href="#glyph1-6" x="365.308594" y="212.803711"/>
  <use xlink:href="#glyph1-7" x="368.308594" y="212.803711"/>
  <use xlink:href="#glyph1-8" x="375.308594" y="212.803711"/>
  <use xlink:href="#glyph1-9" x="386.308594" y="212.803711"/>
  <use xlink:href="#glyph1-10" x="393.308594" y="212.803711"/>
  <use xlink:href="#glyph1-7" x="396.308594" y="212.803711"/>
</g>
<g style="fill:rgb(0%,0%,0%);fill-opacity:1;">
  <use xlink:href="#glyph1-8" x="365.308594" y="230.081055"/>
  <use xlink:href="#glyph1-9" x="376.308594" y="230.081055"/>
  <use xlink:href="#glyph1-10" x="383.308594" y="230.081055"/>
  <use xlink:href="#glyph1-7" x="386.308594" y="230.081055"/>
</g>
</g>
</svg>
